<svg xmlns="http://www.w3.org/2000/svg" data-name="Layer 1" viewBox="0 0 800 600" fill="white"><path d="M150 201.378h70.658v167.391H150zM323.679 201.379h89.538l-95.47 118.863 94.93 118.864h-92.235l-94.93-117.775 98.167-119.952z"/><path d="M439.644 202.468h93.312L389.482 376.95l-46.384-55.618 96.546-118.864zM557.768 203.014H650L507.606 377.495l-46.388-57.798 96.55-116.683zM162.253 181.611l-3.159 3.505v8.516h-7.7v-32.294h7.7v14.24l2.677-4.103 6.887-10.137h9.524l-10.795 14.286 10.795 18.008h-9.129l-6.8-12.021zM187.836 187.644h13.405v5.987h-21.106V161.34h7.701v26.304zM214.339 181.589h6.867l-3.443-11.2zm8.711 6.01H212.5l-1.841 6.034h-8.229l11.716-32.293h7.241l11.8 32.293h-8.272zM260.2 161.339v21.092a13.006 13.006 0 01-.9 5.014 9.848 9.848 0 01-2.544 3.647 10.9 10.9 0 01-3.96 2.23 17.871 17.871 0 01-10.279 0 11 11 0 01-3.984-2.23 10.079 10.079 0 01-2.578-3.647 12.781 12.781 0 01-.92-5.014v-21.092h7.743v21.092a6.147 6.147 0 001.264 4.326 5.576 5.576 0 007.229 0 6.27 6.27 0 001.229-4.326v-21.092zM281.477 185.049a4.173 4.173 0 00-.209-1.364 2.75 2.75 0 00-.822-1.153 7.558 7.558 0 00-1.721-1.075 25.161 25.161 0 00-2.91-1.132 43.28 43.28 0 01-4.059-1.6 16.122 16.122 0 01-3.464-2.108 9.711 9.711 0 01-2.424-2.848 8.265 8.265 0 01.008-7.564 8.6 8.6 0 012.567-2.851 12.67 12.67 0 013.9-1.818 17.723 17.723 0 014.9-.645 15.489 15.489 0 014.8.712 11.313 11.313 0 013.775 2.018 9.238 9.238 0 012.468 3.162 9.438 9.438 0 01.888 4.134H281.5a4.934 4.934 0 00-.275-1.675 3.409 3.409 0 00-.834-1.306 3.939 3.939 0 00-1.382-.854 5.453 5.453 0 00-1.942-.311 6.55 6.55 0 00-1.931.256 4.083 4.083 0 00-1.394.708 3.088 3.088 0 00-.845 1.042 2.855 2.855 0 00-.284 1.255 2.268 2.268 0 00.406 1.318 4.481 4.481 0 001.162 1.109 10.088 10.088 0 001.843.976c.726.305 1.539.6 2.448.9a32.973 32.973 0 014.541 1.82 14.032 14.032 0 013.368 2.286 8.86 8.86 0 012.085 2.9 9.038 9.038 0 01.711 3.662 8.576 8.576 0 01-.844 3.87 7.923 7.923 0 01-2.39 2.848 11.075 11.075 0 01-3.731 1.754 18.411 18.411 0 01-4.861.6 19.4 19.4 0 01-3.269-.278 15.715 15.715 0 01-3.1-.854 13.648 13.648 0 01-2.764-1.452A9.5 9.5 0 01266 189.4a9.768 9.768 0 01-1.469-2.773 10.469 10.469 0 01-.537-3.458h7.721a6.624 6.624 0 00.374 2.384 3.72 3.72 0 001.1 1.562 4.347 4.347 0 001.765.856 10.21 10.21 0 002.4.253 6.09 6.09 0 001.876-.253 3.723 3.723 0 001.283-.688 2.589 2.589 0 00.738-1.01 3.3 3.3 0 00.229-1.22M298.568 168.148a6.908 6.908 0 00.769 3.04 18.066 18.066 0 002.195 3.348l2.872-2.219a10.429 10.429 0 002.305-2.239 4.7 4.7 0 00.9-2.862 4.146 4.146 0 00-.287-1.531 3.828 3.828 0 00-.833-1.3 3.956 3.956 0 00-1.359-.9 4.939 4.939 0 00-1.867-.331 4.859 4.859 0 00-2.039.4 4.25 4.25 0 00-1.472 1.086 4.616 4.616 0 00-.888 1.585 6.093 6.093 0 00-.3 1.92m4.436 23.69a9.247 9.247 0 003.871-.854 10.748 10.748 0 003.368-2.427l-8.929-10.47-.307-.331-1.011.775a17.74 17.74 0 00-2.27 2.183 10.53 10.53 0 00-1.292 1.876 6 6 0 00-.593 1.562 6.3 6.3 0 00-.142 1.255 6.866 6.866 0 00.438 2.45 5.583 5.583 0 001.348 2.053 6.593 6.593 0 002.282 1.408 9.078 9.078 0 003.237.52m-3.423-15.813c-.569-.694-1.08-1.367-1.524-2.018a16.07 16.07 0 01-1.141-1.919 9.475 9.475 0 01-.723-1.9 7.562 7.562 0 01-.253-1.951 8.609 8.609 0 01.514-3.052 6.391 6.391 0 011.481-2.317 6.541 6.541 0 012.317-1.464 8.544 8.544 0 013.037-.51 7.849 7.849 0 012.874.5 6.313 6.313 0 012.149 1.365 5.786 5.786 0 011.339 2.018 6.517 6.517 0 01.461 2.439 5.773 5.773 0 01-.371 2.076 8.14 8.14 0 01-.979 1.806 10.619 10.619 0 01-1.37 1.565q-.767.718-1.557 1.341l-2.874 2.239 8.774 10.337a13.777 13.777 0 001.461-3.36 14.45 14.45 0 00.537-4.027h2.436a17.269 17.269 0 01-.714 5.136 13.766 13.766 0 01-2.1 4.158l4.366 5.145h-3.159L311.8 190.4a12.729 12.729 0 01-4 2.706 12.029 12.029 0 01-4.794.976 12.907 12.907 0 01-4.146-.622 8.926 8.926 0 01-3.127-1.762 7.591 7.591 0 01-1.963-2.741 8.918 8.918 0 01-.682-3.548 7.453 7.453 0 01.473-2.683 9.352 9.352 0 011.3-2.341 15.683 15.683 0 011.965-2.119c.752-.68 1.568-1.35 2.445-2.018zM345.521 181.589l3.665-20.25h7.636l-6.78 32.294h-7.988l-4.277-18.409-4.192 18.409h-7.965l-6.8-32.294h7.657l3.664 20.25 4.387-20.25h6.539l4.454 20.25zM379.639 179.947h-12.111v7.697h14.303v5.988h-22.003v-32.294h22.049v6.011h-14.349v6.809h12.111v5.789zM392.67 176.222h4.873a4.353 4.353 0 003.3-1.165 4.527 4.527 0 001.109-3.249 4.581 4.581 0 00-1.121-3.272 4.312 4.312 0 00-3.289-1.185h-4.872zm4.17 6.01h-4.17v11.4h-7.7v-32.294h12.573a18.419 18.419 0 015 .633 10.96 10.96 0 013.816 1.864 8.144 8.144 0 012.424 3.049 9.909 9.909 0 01.845 4.216 12.66 12.66 0 01-.395 3.316 8.555 8.555 0 01-1.129 2.549 8.245 8.245 0 01-1.766 1.908 12.36 12.36 0 01-2.282 1.408l6.67 13.019v.332h-8.249zM440.962 193.632h-7.656l-11.322-20.093v20.093h-7.703v-32.293h7.703l11.298 20.095v-20.095h7.68v32.293zM465.645 179.947h-12.111v7.697h14.306v5.988h-22.006v-32.294h22.05v6.011h-14.35v6.809h12.111v5.789zM478.677 176.222h4.872a4.351 4.351 0 003.3-1.165 4.523 4.523 0 001.109-3.249 4.581 4.581 0 00-1.12-3.272 4.316 4.316 0 00-3.29-1.185h-4.872zm4.169 6.01h-4.169v11.4h-7.7v-32.294h12.573a18.411 18.411 0 015 .633 10.963 10.963 0 013.815 1.864 8.156 8.156 0 012.425 3.049 9.909 9.909 0 01.845 4.216 12.66 12.66 0 01-.395 3.316 8.556 8.556 0 01-1.13 2.549 8.24 8.24 0 01-1.765 1.908 12.36 12.36 0 01-2.282 1.408l6.669 13.019v.332h-8.249z"/></svg>