<svg xmlns="http://www.w3.org/2000/svg" xmlns:xlink="http://www.w3.org/1999/xlink" width="486.15" height="767.341" viewBox="0 0 455.765 719.382" fill="white">
  <g transform="translate(-728.72 -97.785)">
    <path d="M1168.355 380.74c-1.538-.325-2.778-.18-3.982.135l-235.22 61.628c-.257.067-.689.063-1.718.612-.515.274-1.27.78-1.834 1.736-.564.957-.699 2.224-.554 3.076.197 1.161.551 2.451.756 3.424.395 1.883.664 3.377 1.183 5.365.423 1.622 1.622 3.11 2.947 3.668 1.337.562 2.3.448 3.144.354l.554-.063c-1.79 3.2-3.622 7.137-4.916 12.226-3.158 12.425-3.47 19.714-3.408 25.205.061 5.476.42 8.353-1.31 15.291-2.378 9.535-9.934 17.173-13.18 29.94-1.087 4.275-1.651 8.936-1.839 13.725l-.132 3.376 3.226 1c1.377.426 2.736.826 4.083 1.228l-.003.013 3.203.949.065.019 3.183.956-.003-.029.854.25-.002.007.855.242.1.03 5.516 1.583-.003-.027c.28.08.555.156.838.235l-.002.008.676.182c.112.031.217.066.33.096l5.479 1.502v-.044c.274.071.549.145.822.217l.004.025 3.409.875c.423.109.905.244 1.464.386.2.051.38.092.578.141l1.036.272.004-.015.818.2-.001.003 1.71.417 4.782 1.186.004-.018.814.2v.001l.186.043c.33.08.646.158.978.237l5.33 1.254v-.048l.793.18.002.03 3.583.784c.31.068.602.125.909.19l2.014.45-.004-.025c.273.057.551.117.822.173l-.003.011 2.89.596 3.556.747.004-.017c.735.15 1.46.302 2.2.448l5.124 1.01.126-5.221c.107-4.402.59-8.534 1.415-11.78 2.122-8.347 9.803-16.385 13.197-30 2.104-8.437 1.773-13.811 1.717-18.773-.056-4.977.072-10.199 2.986-21.662 1.368-5.382 3.175-8.391 5.38-11.915 2.195-3.506 4.974-7.645 6.49-13.614 1.433-5.633.88-10.104.586-13.853l161.278-18.1c1.096-.124 2.4-.323 3.895-1.27 1.496-.946 3.069-3.488 2.764-5.814l-1.472-11.246c-.33-2.519-2.553-4.13-4.046-4.606-1.493-.477-2.739-.461-3.975-.267l-124.255 19.543 122.357-26.335c1.077-.232 2.353-.559 3.746-1.65 1.393-1.09 2.705-3.78 2.17-6.062l-2.586-11.045c-.58-2.474-2.955-3.855-4.487-4.18zm-2.96 8.345l1.583 6.75-149.86 32.255.056-.173zm6.214 29.652l.901 6.88-155.806 17.484z" fill-rule="evenodd"></path>
    <path d="M931.842 452.267l240.21-37.759c1.317-.207 3.153.083 3.32 1.356l1.47 11.248c.224 1.711-1.585 2.31-3.05 2.475l-241.173 27.044c-.994.111-1.495-.09-1.595-.658-.073-.418-.3-2.207-.357-3.05-.035-.502.509-.552 1.175-.657z"></path>
    <path d="M825.246 498.524c-14.491.676-17.452 4.621-18.258 9.806-9.373 60.301-11.689 151.435 105.595 181.25 117.285 29.817 158.571-51 179.338-108.814 1.773-4.938 1.486-10.592-11.359-17.335-41.912-22-66.78-31.841-124.109-46.416-57.329-14.574-89.543-20.436-131.207-18.491z" fill="none" stroke="white" stroke-width="8.5" stroke-linecap="round" stroke-linejoin="round"></path>
    <path d="M956.453 517.015c-57.329-14.574-89.543-20.436-131.207-18.491-14.491.676-17.452 4.621-18.258 9.806-.022.137-.041.281-.063.42-2.182 40.998 80.565 42.722 137.111 57.124 56.528 14.353 134.632 38.127 147.725 15.329l.16-.437c1.773-4.938 1.486-10.592-11.359-17.335-41.912-22-66.78-31.841-124.109-46.416z" fill="white" fill-opacity="0.3"></path>
    <ellipse transform="rotate(9.389)" ry="37.013" rx="167.109" cy="524.635" cx="996.179"></ellipse>
    <path d="M1010.657 433.676l-5.494 1.183c-1.953 7.773-1.855 13.031-1.547 17.212.312 4.215.757 7.123-.293 11.251-1.11 4.365-3.062 7.297-5.352 10.955-2.29 3.658-4.845 7.99-6.518 14.573-3.078 12.109-3.334 18.762-3.274 24.07.06 5.31.404 9.01-1.44 16.407-2.724 10.924-10.274 18.503-13.186 29.958-.998 3.926-1.54 8.36-1.712 12.965 1.656.34 3.314.688 4.962 1.013.112-4.647.608-9.059 1.548-12.758 2.51-9.87 10.104-17.592 13.192-29.98 1.98-7.938 1.645-12.534 1.587-17.658-.058-5.123.131-11.035 3.121-22.797 1.51-5.938 3.675-9.583 5.917-13.165 2.241-3.582 4.63-7.153 5.954-12.363 1.275-5.015.726-8.82.43-12.837-.297-4.016-.416-8.466 1.452-15.813a33.6 33.6 0 01.652-2.216zm-8.298 1.786l-5.3 1.141c-1.13 5.888-1.034 10.18-.774 13.693.31 4.215.758 7.124-.291 11.251-1.11 4.366-3.066 7.298-5.355 10.956-2.29 3.658-4.843 7.99-6.516 14.575-3.079 12.108-3.334 18.761-3.274 24.07.06 5.308.404 9.007-1.44 16.405-2.723 10.923-10.274 18.504-13.187 29.96-1.014 3.992-1.56 8.507-1.722 13.195 1.661.363 3.31.698 4.964 1.046.1-4.744.597-9.253 1.555-13.022 2.51-9.87 10.105-17.591 13.194-29.98 1.98-7.938 1.645-12.536 1.587-17.66-.058-5.123.13-11.033 3.121-22.794 1.51-5.939 3.673-9.586 5.915-13.168 2.242-3.582 4.632-7.153 5.956-12.363 1.275-5.015.727-8.82.43-12.836-.278-3.76-.38-7.93 1.137-14.469zm-8.031 1.73l-5.134 1.104c-.5 4.084-.4 7.31-.197 10.058.311 4.215.759 7.124-.29 11.252-1.11 4.365-3.066 7.296-5.355 10.954-2.29 3.658-4.845 7.99-6.518 14.574-3.078 12.108-3.332 18.762-3.272 24.07.06 5.31.404 9.01-1.44 16.407-2.724 10.924-10.274 18.503-13.187 29.958-1.035 4.074-1.586 8.693-1.735 13.485 1.661.384 3.319.756 4.974 1.125.082-4.878.575-9.524 1.558-13.39 2.51-9.87 10.105-17.592 13.194-29.98 1.98-7.938 1.643-12.535 1.585-17.658-.058-5.124.131-11.035 3.121-22.797 1.51-5.939 3.675-9.583 5.917-13.165 2.241-3.582 4.631-7.153 5.956-12.363 1.275-5.015.726-8.82.43-12.837-.223-3.01-.345-6.263.393-10.796zm-7.733 1.665l-5.012 1.077a52.476 52.476 0 00.106 6.562c.311 4.215.758 7.124-.291 11.252-1.11 4.365-3.065 7.296-5.355 10.954-2.289 3.658-4.844 7.99-6.518 14.574-3.078 12.108-3.333 18.762-3.273 24.07.06 5.309.405 9.01-1.439 16.407-2.723 10.924-10.274 18.503-13.186 29.958-1.044 4.107-1.595 8.766-1.738 13.599 1.659.404 3.32.825 4.975 1.214.071-4.952.563-9.674 1.56-13.593 2.509-9.87 10.105-17.592 13.193-29.98 1.98-7.938 1.643-12.535 1.585-17.658-.057-5.124.132-11.035 3.122-22.797 1.51-5.938 3.674-9.583 5.916-13.165 2.242-3.582 4.632-7.153 5.956-12.363 1.275-5.015.727-8.82.43-12.837-.16-2.164-.257-4.473-.03-7.274zm-7.44 1.6l-4.929 1.061c.027 1.107.082 2.147.154 3.12.311 4.215.757 7.124-.293 11.252-1.11 4.365-3.063 7.296-5.352 10.954-2.29 3.658-4.845 7.99-6.518 14.574-3.079 12.108-3.334 18.762-3.274 24.07.06 5.309.404 9.01-1.44 16.407-2.724 10.923-10.274 18.502-13.186 29.958-1.047 4.117-1.597 8.792-1.739 13.639.489.125.97.26 1.458.384 1.175.299 2.344.571 3.517.862.068-4.978.56-9.727 1.562-13.665 2.51-9.87 10.103-17.592 13.192-29.98 1.98-7.938 1.645-12.535 1.587-17.658-.058-5.123.131-11.035 3.121-22.797 1.51-5.938 3.675-9.583 5.916-13.165 2.242-3.582 4.63-7.154 5.955-12.363 1.275-5.016.726-8.82.43-12.837a55.799 55.799 0 01-.16-3.815zm-7.17 1.543l-4.894 1.053c.31 4.06.713 6.946-.312 10.979-1.11 4.365-3.065 7.296-5.355 10.954-2.289 3.658-4.842 7.99-6.516 14.574-3.078 12.108-3.333 18.762-3.274 24.07.06 5.309.404 9.01-1.44 16.407-2.723 10.923-10.274 18.502-13.186 29.958-1.042 4.097-1.592 8.747-1.736 13.568 1.65.446 3.311.879 4.972 1.313.068-4.977.56-9.724 1.56-13.662 2.51-9.87 10.106-17.591 13.194-29.98 1.98-7.937 1.645-12.534 1.587-17.657-.057-5.124.131-11.035 3.122-22.797 1.51-5.938 3.672-9.584 5.914-13.166 2.242-3.582 4.632-7.153 5.956-12.362 1.275-5.016.727-8.82.43-12.837-.01-.133-.012-.28-.021-.415zm-7.052 1.519l-4.903 1.054c.161 2.498.16 4.77-.56 7.6-1.11 4.366-3.065 7.297-5.354 10.955-2.29 3.658-4.845 7.99-6.518 14.574-3.078 12.108-3.332 18.762-3.272 24.07.06 5.309.404 9.01-1.44 16.407-2.724 10.923-10.274 18.502-13.187 29.958-1.029 4.05-1.579 8.638-1.731 13.398 1.656.469 3.302.946 4.97 1.403.072-4.948.562-9.665 1.558-13.582 2.51-9.87 10.105-17.591 13.194-29.98 1.98-7.937 1.643-12.534 1.585-17.658-.058-5.123.131-11.035 3.121-22.797 1.51-5.938 3.675-9.583 5.916-13.165 2.242-3.582 4.632-7.153 5.957-12.362.96-3.776.886-6.865.664-9.875zm-7.175 1.543l-4.966 1.07a20.62 20.62 0 01-.63 4.184c-1.11 4.365-3.065 7.296-5.355 10.954-2.29 3.658-4.844 7.99-6.518 14.574-3.078 12.108-3.332 18.762-3.272 24.07.06 5.309.404 9.01-1.44 16.407-2.723 10.923-10.274 18.502-13.186 29.958-1.011 3.978-1.557 8.478-1.72 13.15 1.646.487 3.298.969 4.958 1.445.083-4.872.577-9.514 1.559-13.376 2.509-9.87 10.105-17.591 13.193-29.98 1.98-7.937 1.643-12.534 1.585-17.658-.057-5.123.132-11.035 3.122-22.797 1.51-5.938 3.674-9.583 5.916-13.165 2.242-3.582 4.632-7.153 5.956-12.362.606-2.382.792-4.486.798-6.474zm-7.544 1.625l-5.222 1.123c-.045.217-.084.424-.141.647-1.11 4.365-3.063 7.297-5.353 10.955-2.289 3.658-4.844 7.99-6.518 14.573-3.078 12.109-3.333 18.762-3.273 24.07.06 5.31.404 9.01-1.44 16.407-2.724 10.924-10.273 18.503-13.185 29.959-.987 3.883-1.53 8.263-1.708 12.814 1.636.506 3.3.992 4.95 1.488.097-4.766.592-9.298 1.555-13.083 2.509-9.87 10.103-17.592 13.192-29.98 1.98-7.938 1.644-12.534 1.586-17.658-.057-5.123.132-11.035 3.122-22.797 1.51-5.938 3.674-9.583 5.916-13.165 2.242-3.582 4.63-7.154 5.954-12.363.267-1.049.44-2.034.565-2.99z" fill-rule="evenodd"></path>
    <path d="M806.925 508.75c-9.318 60.303-11.358 151.083 105.658 180.83 116.993 29.743 158.36-50.594 179.178-108.377-36.194 4.732-91.197-.976-147.725-15.329-56.546-14.402-107.603-35.673-137.11-57.125z" fill="white" fill-opacity="0.15"></path>
    <circle r="23.754" cy="615.051" cx="1014.412"></circle>
    <circle r="3.487" cy="608.802" cx="1015.69" fill="white" fill-opacity="0.6"></circle>
    <circle r="5.662" cy="600.107" cx="1010.24" fill="white" fill-opacity="0.6"></circle>
    <circle r="23.754" cy="576.243" cx="859.595"></circle>
    <circle r="3.487" cy="569.994" cx="860.872" fill="white" fill-opacity="0.6"></circle>
    <circle r="5.662" cy="561.299" cx="855.423" fill="white" fill-opacity="0.6"></circle>
    <ellipse transform="rotate(13.537)" ry="6.215" rx="28.864" cy="396.028" cx="1130.222" fill="white" fill-opacity="0.4"></ellipse>
    <ellipse transform="rotate(13.537)" ry="6.215" rx="28.864" cy="394.569" cx="970.487" fill="white" fill-opacity="0.4"></ellipse>
    <path d="M784.59 453.177c-.676-.177-1.45-.136-2.259.121l-9.683 3.085c-1.458.464-1.857 1.708-.92 2.603l31.459 30.042c.465.445 1.17.891 2.04.757l3.01-.464c.708-.11.84-1.114.362-1.823l-22.346-33.138a2.833 2.833 0 00-1.664-1.183zm31.574 9.274a3.266 3.266 0 00-.943-.054l-7.538.59c-1.167.092-1.849.932-1.387 1.754l13.054 23.268c.243.433.464.765 1.256.815l1.869.116c.565.036.996-.337.845-1l-5.45-23.826c-.206-.899-.836-1.475-1.706-1.662zm-43.304 17.197c-.8-.133-1.485.291-1.665 1.15l-2.253 10.703c-.224 1.063-.13 1.947 2.12 2.55l24.784 6.65c.71.19 1.254.28 1.788-.626l1.873-3.185c.254-.43-.033-.899-.595-1.248l-25.228-15.67a2.283 2.283 0 00-.824-.324z" fill="none" stroke="white" stroke-width="7.1" stroke-linecap="round" stroke-linejoin="round"></path>
    <path d="M903.025 595.036a95.91 95.91 0 00-1.62 6.706l28.863 12.155 3.566-3.874.963 5.78 19.784 8.332 3.193-15.18z"></path>
    <path d="M930.192 446.469l235.22-61.629c1.29-.338 3.145-.233 3.438 1.016l2.59 11.044c.394 1.681-1.346 2.459-2.788 2.77l-237.25 51.063c-.978.21-1.496.06-1.653-.495a47.536 47.536 0 01-.661-2.999c-.084-.496.451-.6 1.104-.77z"></path>
    <path d="M1071.038 567.156c-18.711-4.757-35.918-2.71-45.102-5.045-7.354-1.87-12.887-4.685-18.425-7.582-5.538-2.897-11.096-5.902-18.169-7.7-9.332-2.373-15.564-2.441-20.51-2.252-4.947.189-8.35.563-13.24-.68-5.169-1.314-8.682-3.471-13.059-6.006-4.377-2.535-9.553-5.37-17.35-7.353-14.34-3.645-22.174-4.133-28.414-4.245-6.24-.112-10.58.128-19.339-2.06-12.934-3.232-22.095-11.444-35.662-14.893-7.079-1.8-15.493-2.54-23.895-2.441.11 1.748.887 3.505 2.16 5.265 7.4.025 14.652.718 20.46 2.194 11.688 2.972 21.019 11.234 35.688 14.9 9.4 2.348 14.794 2.146 20.817 2.254 6.023.109 12.98.505 26.909 4.046 7.032 1.788 11.391 4.19 15.677 6.672 4.286 2.482 8.563 5.12 14.732 6.687 5.94 1.51 10.394 1.057 15.108.877 4.713-.18 9.942-.16 18.643 2.053 6.162 1.567 11.159 4.234 16.738 7.153 5.578 2.918 11.723 6.062 19.855 8.129 11.666 2.966 27.83.652 45.103 5.043a54.57 54.57 0 017.586 2.52c1.325-1.257 2.117-2.795 2.265-4.67a60.962 60.962 0 00-8.576-2.866z" fill-rule="evenodd"></path>
    <g font-weight="700" font-family="SF Shai Fontai" word-spacing="0">
      <path d="M863.387 252.499a48.797 48.797 0 00-.737-3.371c-.33-1.325-.746-2.851-1.248-4.579-.92-3.555-1.532-6.213-1.838-7.974-.81-.032-1.508.003-2.093.105-2.148.373-6.443 1.983-12.887 4.83-6.248 2.815-10.449 4.97-12.602 6.467-1.499 1.211-3.352 2.7-5.559 4.466l-7.515 6.23c.46 3.808 1.018 8.463 1.673 13.965.752 5.485 1.574 11.95 2.466 19.399.408 2.348.806 5.216 1.194 8.605a872.909 872.909 0 011.615 11.9 116.738 116.738 0 0126.665-8.003 97.814 97.814 0 016.925-.944c2.455-.34 4.98-.563 7.576-.669-.541-12.951-1.128-23.562-1.76-31.833-.55-8.37-1.175-14.57-1.875-18.594zm-29.501-81.064c-3.476 1.986-9.19 5.107-13.613 7.43-4.437 2.24-11.497 4.83-16.882 7.408 1.77 7.295 3.307 14.113 4.61 20.452 1.386 6.239 2.56 12.126 3.522 17.66.32 1.846.709 4.37 1.165 7.574.456 3.204.98 7.087 1.572 11.65 4.233-3.415 10.333-6.616 14-9.24 3.75-2.725 9.126-6.046 12.602-8.033-3.009-8.635-5.096-16.307-6.262-23.016-2.026-11.657-2.264-22.285-.714-31.885zm58.643 68.224c.248 1.425.63 5.938 1.146 13.537.614 7.583 1.44 18.411 2.478 32.486.14 1.963.336 3.96.588 5.989l.713 5.837c.416 5.285.193 9.211-.668 11.78-.86 2.568-3.991 5.964-9.392 10.185-5.331 4.037-9.657 6.344-12.975 6.92-.098.017-4.77-.25-14.017-.804-9.622-.401-18.29.068-26 1.408-7.419 1.29-16.163 4.494-26.234 9.613-1.015.523-2.421 1.112-4.218 1.77a144.857 144.857 0 01-6.413 2.151l-.896-5.157c-.088-.503-.058-1.2.089-2.09.245-.906.33-1.568.258-1.988L794 303.694a873.65 873.65 0 00-4.045-31.955 892.408 892.408 0 00-5.054-32.557c-1.326-7.631-2.583-14.281-3.769-19.95-1.089-5.686-2.178-10.507-3.268-14.465-2.9-10.9-5.038-18.866-6.415-23.896-1.28-5.048-1.868-7.279-1.766-6.691-.452-2.6 3.24-6.525 11.076-11.774 3.418-2.322 6.462-4.19 9.132-5.605 2.656-1.498 4.93-2.585 6.825-3.26a329.275 329.275 0 012.942 9.987 182.221 182.221 0 012.277 7.898 171.333 171.333 0 014.38-2.576 364.239 364.239 0 016.297-3.686c4.423-2.324 9.786-5.027 16.088-8.109a3538.623 3538.623 0 0121.703-10.51c2.714-1.163 7.34-2.615 13.874-4.355-.078.704-.377 2.744-.897 6.117-.437 3.272-1.143 7.888-2.12 13.846-1.387 8.794-1.294 17.72.28 26.777.656 3.774 1.572 7.891 2.75 12.352 1.26 4.36 2.838 9.097 4.732 14.21l7.028-1.221c2.342-.407 5.519-.354 9.53.158 3.073 7.846 5.389 16.256 6.948 25.23z" stroke="none"></path>
      <path d="M941.705 201.954q1.946 11.196 7.162 51.63 5.997 44.056 5.235 45.743-2.515 5.492-10.227 10.59-7.711 5.098-14.586 7.2-3.833-2.962-4.161-4.85.065.378.059-.528.118-1.057.04-3.247.104-2.869-3.272-29.237-2.604-21.06-4.81-36.358-2.081-15.448-3.852-25.638-3.17-18.24-9.299-43.093-.955-4.63-3.766-13.86-2.19-7.395-2.452-8.905-.678-3.9 11.142-11.396 4.753-3.03 8.736-5.277 3.984-2.247 7.389-3.487 5.328 18.513 9.414 35.946 4.232 17.408 7.248 34.767z" stroke="none"></path>
      <path d="M1073.014 221.123q-1.562 4.03-5.958 9.978 1.635 5.936 2.721 11.32 1.233 5.358 2.107 10.39 3.301 18.995-.394 26.376-2.126 4.257-9.332 9.656-3.75 2.725-6.899 4.569-3.149 1.843-5.99 2.855l-5.677-3.16q-2.817-1.455-5.612-2.783-4.815-2.533-15.356-.701-5.857 1.017-14.9 4.533-10.357 9.835-23.125 13.609-1.79-4.225-2.14-6.238.065.378-.103-8.405-.088-.504-.75-5.183-.538-4.832-1.841-14.065-3.028-21.764-4.987-34.772-1.834-13.159-2.665-17.939-.874-5.032-2.282-11.396-1.283-6.516-3.019-14.768-2.444-10.59-3.851-16.955-1.262-6.39-1.889-9.132-1.196-6.013-1.91-9.258-.737-3.37-1.205-4.326-1.884-5.634-6.731-12.697.773-5.966 10.088-12.25 7.375-5.3 15.4-7.73 5.485 5.526 7.918 11.712 33.457-18.384 51.905-21.59 3.807-.662 8.466 3.583-1.612 2.872-3.371 5.77-1.759 2.897-3.372 5.769-2.001 4.106-.274 14.044 2.405 13.837-11.474 23.376-3.23 2.246-7.674 4.444-4.298 2.173-9.834 4.171-1.711-10.718-1.5-19.048.358-8.356 2.53-14.954-3.676 1.416-9.043 3.515-5.22 2.074-12.403 5.007 7.574 30.563 12.012 56.1 5.902 33.964 10.089 71.077 21.24-7.968 32.374-8.995-1.182-4.2-2.883-10.515-1.554-6.339-3.794-14.891-7.421-1.043-14.235-2.062-6.814-1.02-13.752-1.887 2.888-5.945 9.876-12.602 7.882-7.59 13.739-8.608 3.953-.687 41 5.056z" stroke="none"></path>
      <path d="M837.609 389.788q-.097-.576-.3-1.402-.201-.827-.509-1.905-.562-2.218-.747-3.317-.505-.022-.871.04-1.342.226-5.373 1.981-3.91 1.735-5.258 2.662-.94.75-2.323 1.844l-3.14 2.573q.274 2.375.664 5.806.452 3.42.984 8.065.247 1.465.477 3.578.292 2.102.646 4.948 5.38-2.306 11.113-3.272 1.402-.237 2.884-.379 1.533-.205 3.154-.263-.295-8.073-.663-13.23-.315-5.218-.738-7.73zm-12.833-33.343q-2.176 1.228-4.944 2.663-2.777 1.382-6.146 2.972 1.08 4.552 1.873 8.507.844 3.893 1.426 7.345.194 1.151.468 3.15.274 1.997.628 4.842 2.654-2.115 4.951-3.74 2.35-1.686 4.526-2.914-1.85-5.39-2.555-9.575-1.226-7.271-.227-13.25zm24.987 28.066q.15.89.447 5.627.358 4.728.959 13.503.08 1.224.232 2.49l.283 2.426q.242 3.295-.304 4.893-.546 1.598-3.93 4.213-3.342 2.5-5.415 2.85-.06.01-5.83-.363-6.005-.279-10.822.533-4.634.782-10.937 3.942-.636.322-1.759.727-1.123.405-2.674.881l-.361-2.145q-.053-.314.042-.867.156-.565.111-.826l-1.181-11.475q-.684-6.663-1.613-13.285-.867-6.632-2.03-13.537-.803-4.76-1.525-8.297-.66-3.546-1.327-6.016-1.774-6.802-2.617-9.942-.782-3.15-.72-2.783-.273-1.622 4.635-4.87 2.141-1.437 3.812-2.31 1.663-.926 2.847-1.341.702 2.302 1.202 4.155.562 1.842.93 3.286.74-.448 1.828-1.061 1.14-.677 2.629-1.52 2.768-1.434 6.712-3.336 3.944-1.903 9.054-4.324 1.698-.717 5.783-1.782-.052.44-.387 2.54-.284 2.038-.913 5.749-.895 5.476.057 11.126.397 2.354 1.117 5.138.772 2.72 1.938 5.913l2.927-.493q1.463-.247 3.965.085 1.892 4.9 2.835 10.496z" stroke="none"></path>
    </g>
  </g>
</svg>
