<?xml version="1.0" encoding="UTF-8"?>
<svg version="1.1" fill="white" viewBox="0 0 2048 1295" width="980" height="620" xmlns="http://www.w3.org/2000/svg">
<path transform="translate(1009,13)" d="m0 0h31l31 2 32 4 27 5 25 6 27 8 23 8 24 10 25 12 23 12 21 13 12 8 14 10 17 13 13 11 14 12 31 31 7 8 11 13 13 17 11 15 13 20 9 15 10 18 13 26 13 32 12 36 7 27 7 36 4 31 2 33v30l-2 33-4 31-7 36-8 30-11 33-12 29-14 29-14 25-14 22-13 18-10 13-9 11-12 14-14 15-16 16-8 7-11 10-10 8-13 10-18 13-17 11-22 13-23 12-23 11-28 11-30 10-36 9-32 6-35 4-14 1h-55l-33-3-32-5-28-6-29-8-32-11-28-12-27-13-23-13-22-14-14-10-16-12-11-9-14-12-13-12-24-24-7-8-12-14-10-13-13-18-12-18-9-15-9-16-12-23-13-30-12-34-8-28-6-27-5-29-3-27-1-16v-53l2-26 5-35 6-29 8-30 9-27 13-32 14-29 12-22 12-19 13-19 9-12 10-13 12-14 11-12 9-10 13-13 8-7 11-10 14-11 15-12 19-13 22-14 18-10 23-12 32-14 34-12 29-8 32-7 26-4 31-3zm-5 51-35 3-32 5-30 7-30 9-31 12-28 13-24 13-19 12-16 11-16 12-11 9-15 13-12 12-5 4v2h-2l-7 8-7 7-9 11-11 13-13 18-12 18-13 22-14 27-11 25-10 28-7 23-7 30-5 30-3 32v54l3 32 6 35 8 32 12 36 11 26 13 27 14 24 16 24 12 16 13 16 13 15 27 27 11 9 10 9 20 15 24 16 22 13 23 12 25 11 27 10 26 8 30 7 31 5 32 3h53l32-3 30-5 30-7 26-8 25-9 25-11 24-12 27-16 16-11 19-14 11-9 14-12 7-7 8-7 9-9 7-8 12-13 8-10 15-20 16-24 12-21 12-23 11-25 11-30 8-28 6-27 5-31 3-37v-33l-2-29-5-35-3-15-1-2h-523l-1 1v194h322l-15 31-20 30-13 16-14 15-8 7-12 10-17 12-15 9-19 10-20 8-22 7-23 5-22 3-28 1-29-2-23-4-25-7-21-8-25-12-19-12-16-12-11-9-14-13-7-8-12-14-14-20-10-18-8-16-7-17-8-27-4-20-3-26v-32l3-27 6-27 9-27 11-24 9-16 10-15 10-13 11-13 18-18 11-9 15-11 16-10 18-10 19-8 24-8 27-6 24-3h39l25 3 27 6 24 8 20 9 19 10 18 12 13 10 14 12 16 16 9 11 12 16 1 2 54 1h93l68-1-3-10-11-28-14-29-12-22-12-19-12-17-13-17-11-13-22-24-9-9-8-7-10-9-14-11-13-10-19-13-21-13-24-13-28-13-29-11-30-9-30-7-24-4-30-3-14-1zm5 244-24 3-21 5-20 7-25 12-19 12-11 9-14 12-8 8-9 11-8 10-12 19-9 17-8 21-6 21-4 26-1 12v18l3 27 4 19 8 24 12 25 10 16 9 12 11 13 16 16 14 11 15 10 16 9 20 9 26 8 23 4 8 1h38l25-4 23-6 22-9 23-12 16-11 11-9 13-12 4-5-282-1v-289h203l79-1-6-7-12-11-16-12-16-10-17-9-23-9-23-6-19-3-10-1z" fill="white"/>
<path transform="translate(995,114)" d="m0 0h53l36 4 31 6 26 7 26 9 26 11 24 12 17 10 24 16 16 12 11 9 11 10 8 7 17 17 7 8 11 13 15 20 12 18 9 15 6 11h-117l-9-10-7-8-12-13-8-7-14-12-15-11-17-11-18-10-23-11-15-6-27-8-22-5-21-3-11-1h-48l-26 3-28 6-26 8-24 10-16 8-18 10-12 8-11 8-10 8-13 11-23 23-9 11-10 13-10 15-9 15-11 21-10 25-6 18-6 24-4 24-2 20v38l3 27 5 26 7 25 9 24 14 29 11 18 12 17 11 14 22 24 8 7 15 13 18 13 18 11 20 11 23 10 30 10 27 6 30 4 18 1h15l27-2 26-4 28-7 26-9 24-11 17-9 19-12 16-12 11-9 13-12 4-4h2l2-4 8-8 9-11 3-3h117l-8 14-12 20-13 18-11 14-12 14-11 12-17 17-11 9-9 8-16 12-16 11-21 13-29 15-23 10-25 9-32 9-31 6-25 3-12 1h-53l-36-4-31-6-32-9-27-10-18-8-17-8-23-13-24-16-12-9-10-8-13-11-13-12-17-17-7-8-11-13-15-20-10-15-12-20-12-23-10-22-10-27-8-28-6-28-4-28-2-28v-32l3-36 5-30 6-25 8-26 9-24 12-26 10-19 13-21 12-17 12-16 13-15 12-13 17-17 8-7 13-11 19-14 18-12 15-9 22-12 22-10 29-11 27-8 34-7 29-4z"/>
<path transform="translate(572,1093)" d="m0 0h31l5 12 16 47 13 37v-95l1-1h30v188l-18 1h-11l-3-3-21-61-11-32-1 95h-31z" fill="white"/>
<path transform="translate(1157,1093)" d="m0 0h76l10 5 7 8 3 7v94l-5 10-6 5 1 8 10 48-1 4h-29l-3-9-9-45-23-1v54h-31zm31 31v72h30l4-4v-64l-4-4z"/>
<path transform="translate(691,1093)" d="m0 0h74l8 3 9 8 4 8 1 4v141l-3 10-6 8-8 5-3 1-14 1h-61l-1-1zm31 31-1 126 1 1h26l6-2 2-3v-117l-4-5z" fill="white"/>
<path transform="translate(948,1093)" d="m0 0h53l10 5 5 5 4 5 2 5v39h-31l-1-24-3-3h-26l-3 3v40l3 3 38 1 9 3 8 7 4 5 2 5v70l-5 9-9 8-6 2-11 1h-38l-10-2-9-6-6-9-2-6v-36l1-1h30l1 24 2 3 4 1h19l6-2 1-1v-40l-3-3-38-1-9-3-9-8-4-8-1-4v-65l4-9 7-8 7-4z" fill="white"/>
<path transform="translate(809,1093)" d="m0 0h30l1 153 2 3 5 1h19l5-2 1-1 1-153 1-1h30v168l-5 10-9 8-6 2-11 1h-38l-10-2-9-6-6-9-2-7v-164z" fill="white"/>
<path transform="translate(1365,1093)" d="m0 0h30l3 9 29 126 2 15 2 28v10l-15 1h-14l-2-1-2-31-7 1h-30v13l-1 17-27 1-5-1 3-42 3-17 29-125zm14 68-13 55v4h28l-4-19-9-39z" fill="white"/>
<path transform="translate(1043,1093)" d="m0 0h95l1 1v18l-1 12h-32v157h-31v-157h-32z"/>
<path transform="translate(1449,1093)" d="m0 0h31v158h51v30l-81 1-1-1z" fill="white"/>
<path transform="translate(1276,1093)" d="m0 0h31v188h-31z"/>
<path transform="translate(517,1093)" d="m0 0h31v188h-31z"/>
<path transform="translate(1063,467)" d="m0 0h43l6 3 6 7v58l-4 6-2 1 5 26 1 9h-17l-2-5-5-27h-13v31l-1 1h-17zm18 18v42h18l1-1v-40l-1-1z" fill="white"/>
<path transform="translate(1006,467)" d="m0 0h31l6 3 5 6 1 2v23h-18v-15h-19v72h15l3-1 1-16h-9l-1-1v-17h28v43l-6 8-9 3h-27l-7-3-6-7-1-4v-83l3-6 7-6z" fill="white"/>
<path transform="translate(1348,467)" d="m0 0h17l3 7 16 69 2 17 1 16-1 1h-17l-1-3-1-15h-20l-2 17-1 1h-16l-1-1 1-21 2-13 17-73zm8 40-7 30v4h15l1-2-7-31z" fill="white"/>
<path transform="translate(1274,467)" d="m0 0h31l8 4 4 6 1 3v21l-1 1h-17l-1-14-1-2h-18l1 71 4 1h11l3-2 1-14h17l1 1v20l-3 7-7 6-5 1h-28l-8-4-5-8v-86l3-6 6-5z" fill="white"/>
<path transform="translate(1131,467)" d="m0 0h50v18h-32v28h26v17l-1 1h-25l1 27 31 1v17l-1 1h-49z" fill="white"/>
<path transform="translate(1192,467)" d="m0 0h18l3 29 8 24v2h2l2-9 6-17 2-24 1-5h17l1 3-2 25-11 33-7 19-1 29-1 1h-17l-1-29-18-52-2-20z" fill="white"/>
<path transform="translate(1384,467)" d="m0 0h56v18h-19v92h-17l-1-1v-91h-19z"/>
</svg>
