<svg xmlns="http://www.w3.org/2000/svg" id="Layer_1" data-name="Layer 1" viewBox="0 0 800 600"><defs><style>.cls-1{fill:white}.cls-2{fill:white}</style></defs><path d="M206.7 449.4h-38.6v-13.6h41.4v-5.6h-41.4v-13.6h41.4V411h-45.9v38.4H150v-52h56.7c9 0 15.9 6.6 15.9 14.7a14.162 14.162 0 01-5.6 11.2 14.081 14.081 0 016 11.4c.1 8.1-7.3 14.7-16.3 14.7" class="cls-1"/><path d="M206.7 397.5H150v52h13.6V411h45.9v5.6h-41.4v13.6h41.4v5.6h-41.4v13.6h38.6c9 0 16.4-6.6 16.4-14.7a14.353 14.353 0 00-6-11.4 14.162 14.162 0 005.6-11.2c-.1-8-7-14.6-16-14.6m0 1.4c8.1 0 14.5 5.8 14.5 13.2a12.456 12.456 0 01-5 10l-1.5 1.2 1.5 1.1a12.678 12.678 0 015.4 10.2c0 7.3-6.7 13.2-14.9 13.2h-37.1v-10.6h41.5v-8.6h-41.5V418h41.5v-8.6h-48.9v38.4h-10.6v-49h55.1z" class="cls-2"/><path d="M298.8 449.4l-7.3-10h-38.1l9.9-13.6h18.4l-12.1-16.6-29.2 40.1h-17.2l34.6-46.4c2.8-3.7 6.9-6.7 11.9-6.7 4.9 0 9 3 11.8 6.7l34.6 46.4h-17.3z" class="cls-1"/><path d="M269.6 396.3c-5 0-9 3-11.9 6.7l-34.6 46.4h17.2l29.2-40.1 12.1 16.6h-18.4l-9.9 13.6h38.1l7.3 10H316L281.3 403c-2.7-3.7-6.8-6.7-11.7-6.7m0 1.5c3.9 0 7.7 2.2 10.6 6.1l32.9 44.1h-13.6l-6.9-9.4-.4-.6h-36l7.8-10.6h20.5l-1.7-2.3-12.1-16.6-1.2-1.6-1.2 1.6-28.8 39.5H226l32.9-44.1c2.1-2.8 5.7-6.1 10.7-6.1" class="cls-2"/><path d="M372.7 449.4H316v-13.6h59.5v-5.6h-45.6a16.4 16.4 0 110-32.8h56.7V411h-59.5v5.6h45.6a16.4 16.4 0 110 32.8" class="cls-1"/><path d="M386.6 397.5h-56.7a16.4 16.4 0 100 32.8h45.6v5.6H316v13.6h56.7a16.4 16.4 0 100-32.8h-45.6v-5.6h59.5zm-1.5 1.4v10.6h-59.5v8.6h47.1a14.9 14.9 0 110 29.8h-55.2v-10.6H377v-8.6h-47.1a14.9 14.9 0 110-29.8z" class="cls-2"/><path d="M392.6 397.5h13.6v52h-13.6z" class="cls-1"/><path d="M406.2 397.5h-13.6v52h13.6zm-1.5 50.5h-10.6v-49h10.6z" class="cls-2"/><path d="M428.6 449.4a16.41 16.41 0 01-16.4-16.4v-35.6h13.6v38.4h45.9v13.6z" class="cls-1"/><path d="M425.7 397.5h-13.6v35.6a16.41 16.41 0 0016.4 16.4h43.1v-13.6h-45.9zm-1.4 1.4v38.4h46v10.6h-41.7a14.937 14.937 0 01-14.9-14.9v-34.1z" class="cls-2"/><path d="M476.2 397.5h13.6v52h-13.6z" class="cls-1"/><path d="M489.8 397.5h-13.6v52h13.6zm-1.5 50.5h-10.6v-49h10.6z" class="cls-2"/><path d="M552.5 449.4h-56.7v-13.6h59.5v-5.6h-45.6a16.4 16.4 0 110-32.8h56.7V411h-59.5v5.6h45.6a16.4 16.4 0 010 32.8" class="cls-1"/><path d="M566.4 397.5h-56.7a16.4 16.4 0 100 32.8h45.6v5.6h-59.5v13.6h56.7a16.4 16.4 0 000-32.8h-45.6v-5.6h59.5zm-1.5 1.4v10.6h-59.5v8.6h47.1a14.9 14.9 0 010 29.8h-55.2v-10.6h59.5v-8.6h-47.1a14.9 14.9 0 110-29.8z" class="cls-2"/><path d="M620.5 449.4l-27.2-14.1a13.57 13.57 0 01-7.2-10.2v24.3h-13.6v-52h13.6v23.9a13.745 13.745 0 017.2-10.2l26.6-13.7h29.5l-50.5 25.8 51.1 26.2z" class="cls-1"/><path d="M649.3 397.5h-29.5l-26.6 13.7a13.57 13.57 0 00-7.2 10.2v-23.9h-13.6v52H586v-24.3a13.745 13.745 0 007.2 10.2l27.2 14.1H650l-51.1-26.2zm-6 1.4l-45.1 23-2.5 1.3 2.5 1.3 45.7 23.4h-23L594 434a12.122 12.122 0 01-6.4-9.1l-2.9.2v22.8h-10.6v-49h10.6v22.4l2.9.2a12.3 12.3 0 016.4-9.1l26.2-13.6h23.1z" class="cls-2"/><path d="M400 373.9l-.4-.3-.8-.5-1.4-.9c-11.6-7-23-17.4-33.7-30.8-.5-.6-1-1.3-1.5-2a67.29 67.29 0 01-8.4 4.9 62.131 62.131 0 01-10.7 3.8c-7.6 2.3-14.8 4.5-18.6 12.1l-2 3.9-1 1.9-.5-2.1-1.1-4.2a41.718 41.718 0 012.3-28.1v-.2l.1-.1a32.111 32.111 0 0112.1-11.5l-3.9-5.6c-1.7-2-1.9-4.9-.6-7.8l.1-.2v-.2l.1-.1a59.957 59.957 0 016.6-7.6c-.3-.6-.6-1.2-.9-1.7a356.809 356.809 0 01-32.7-110l-.2-1.5-.1-.7v-.4l.2-.3.5-.5.9-1.1c8.7-10.2 22.7-18.4 40.6-23.9 16.3-5 35.3-7.7 54.9-7.7s38.6 2.6 54.9 7.7c17.9 5.5 31.9 13.8 40.6 23.9l.9 1.1.5.5.2.3v.4l-.1.7-.2 1.5a356.809 356.809 0 01-32.7 110c-.3.6-.6 1.2-.9 1.7a59.957 59.957 0 016.6 7.6l.1.1.1.1v.1l.1.2a7.421 7.421 0 01-.6 7.8l-3.9 5.6a32.883 32.883 0 0112.1 11.5l.1.1v.2a41.768 41.768 0 012.3 28.1l-1 4.3-.5 2.1-1-1.9-1.9-3.9c-3.8-7.6-11-9.8-18.6-12.1a91.29 91.29 0 01-10.7-3.8 67.29 67.29 0 01-8.4-4.9c-.5.7-1 1.3-1.5 2-10.7 13.5-22.1 23.8-33.7 30.8l-1.4.9-.8.5z"/><path d="M447.5 342a70.8 70.8 0 0010.3 3.7c7.7 2.3 15.6 4.7 19.9 13a39.061 39.061 0 00-2.3-25.9 29.4 29.4 0 00-11-10.5l-2.7-1.4 5.7-8.1.1-.1c1-1.2 1.1-3.1.3-5.1a59.139 59.139 0 00-5.6-6.6 250.721 250.721 0 01-22.5 36.6 69.653 69.653 0 007.8 4.4M332.3 307.5c-.8 2-.8 3.8.3 5.1l.1.1 5.7 8.1-2.7 1.4a28.822 28.822 0 00-11 10.6 39.747 39.747 0 00-2.3 25.9c4.4-8.3 12.3-10.7 20-13a80.362 80.362 0 0010.3-3.7 67.266 67.266 0 007.7-4.4 244.276 244.276 0 01-22.5-36.5 41.422 41.422 0 00-5.6 6.4M458.7 293.8a239.853 239.853 0 01-27.1 43.7c-10.2 12.8-20.9 22.6-31.8 29.2-10.9-6.6-21.6-16.5-31.8-29.2a239.853 239.853 0 01-27.1-43.7A353.662 353.662 0 01308.8 186c15.7-18.1 50.5-29.3 90.9-29.3 40.5 0 75.3 11.2 90.9 29.3a347.855 347.855 0 01-31.9 107.8m34.9-110.1c-8.4-9.8-22-17.8-39.5-23.2a188.77 188.77 0 00-54.2-7.6c-19.4 0-38.2 2.6-54.2 7.6-17.5 5.4-31.1 13.4-39.5 23.2l-.9 1.1.2 1.5A355.036 355.036 0 00338 295.6a244.027 244.027 0 0027.5 44.4c10.6 13.2 21.7 23.4 33 30.3l1.4.9 1.4-.9c11.4-6.8 22.5-17 33-30.3 10-12.5 19.2-27.4 27.5-44.4a355.036 355.036 0 0032.5-109.3l.2-1.5z" class="cls-2"/><path d="M439.1 198.1c-1.8-4.6-5.1-6.8-9.9-6.8h-68.3v118.3l21-12.7v-87.3H418v17l-32.5 15.7 32.5 12.5v22.9h-23.9v18.5H439v-42.7L421 243l18-13.7v-31.2z" class="cls-1"/><path d="M429.2 191.2h-68.3v118.3l21-12.7v-87.3H418v17l-32.5 15.7 32.5 12.4v22.9h-23.9V296H439v-42.7l-18-10.5 18-13.7v-31.2a9.738 9.738 0 00-9.8-6.7m0 1.5c4.1 0 6.8 1.9 8.4 5.7v30.2l-17.4 13.3-1.7 1.3 1.9 1.1 17.3 10.1v40.4h-42v-15.5h23.9v-25.4l-.9-.4-29.3-11.2 29.4-14.3.8-.4v-19.4h-39.1v87.9l-18.1 11V192.9h66.8z" class="cls-2"/></svg>