<svg id="Layer_1" fill="white" data-name="Layer 1" xmlns="http://www.w3.org/2000/svg" viewBox="0 0 800 600"><path d="M397.154,261.667c-.509,2.169-2.061,3.351-3.184,5.243-22.2-7.2-44.3-14.374-67.147-21.789l25.6,78.89c-5.094,7-10.088,13.859-15.5,21.291-12.54-38.593-24.888-76.6-37.489-115.379,33.076,10.744,65.324,21.219,97.721,31.744m1.3-106.375v26.371q-36.019,26.18-72.813,52.916c-8.154-2.653-16.139-5.251-25.048-8.148,32.867-23.892,65.16-47.366,97.861-71.139m2.134,108.688c20.317,27.974,40.23,55.4,60.492,83.3H445.807l-45.23-62.185c-15.273,21.009-30.261,41.622-45.233,62.216h-15.3c20.3-27.935,40.255-55.4,60.548-83.328m1.95-108.782c32.719,23.764,65.006,47.222,98.056,71.227-8.876,2.883-16.925,5.5-25.051,8.143q-36.556-26.549-73-53.016Zm61.71,190.079c-5.415-7.407-10.384-14.211-15.514-21.228,8.459-26.05,16.917-52.095,25.624-78.914-22.8,7.39-44.9,14.551-66.991,21.709-1.367-1.721-2.731-3.027-3.4-5.155,32.411-10.525,64.723-21.022,97.751-31.747-12.567,38.681-24.888,76.6-37.472,115.335M284.373,225.042c-5.3,7.476-10.317,14.562-15.406,21.745q16.748,51.5,33.435,102.812c8.423,2.861,16.618,5.644,25.212,8.56q-11.738,16.163-23.253,32.024l.883,2.717h1.674q11.787-16.2,23.7-32.582c5.55,7.445,10.741,14.407,15.865,21.277H454.708c5.2-6.989,10.384-13.951,15.843-21.288l23.7,32.593h1.686l.879-2.706q-11.558-15.916-23.272-32.051c8.647-2.925,16.861-5.7,25.226-8.528q16.729-51.468,33.421-102.834c-5.113-7.216-10.121-14.288-15.389-21.728L554.457,212.8l.41-1.257-2.612-1.895q-18.2,5.907-36.728,11.923V195.041c-29.492-21.43-58.572-42.558-87.658-63.688l-25.6,7.935V100.67l-1.676-1.217-1.9,1.378v38.432c-8.748-2.728-17.033-5.307-25.4-7.913-29.279,21.271-58.434,42.452-87.862,63.835v26.307q-18.44-5.976-36.52-11.84l-2.6,1.887.409,1.262,37.646,12.241M449.731,436.028v29.929l25.513,14.853v8.549c-11.261-6.485-22.063-12.708-32.937-18.969V431.645c10.716-6.2,21.518-12.451,32.807-18.981v8.575c-8.273,4.82-16.809,9.792-25.383,14.789m-85.647,34.354c-10.768,6.206-21.57,12.434-32.989,19.016v-8.563l25.58-14.917V436.006c-8.481-4.917-17.022-9.87-25.492-14.778a26.593,26.593,0,0,1,.194-8.511c11.1,6.416,21.892,12.658,32.707,18.914Zm-67.467-34.42v30.076c8.549,4.96,17,9.863,25.444,14.764a25.065,25.065,0,0,1-.2,8.477l-32.813-18.947V431.687q15.9-9.194,32.708-18.909a25.632,25.632,0,0,1,.323,8.386c-8.38,4.87-16.828,9.778-25.463,14.8m220.706,34.309c-10.675,6.195-21.56,12.514-32.968,19.138v-8.621c8.329-4.845,16.873-9.812,25.442-14.8V436.022c-8.345-4.869-16.873-9.841-25.414-14.825a23.048,23.048,0,0,1,.058-8.519c11.225,6.475,22.016,12.695,32.882,18.962Zm-54.475-10.412V442.11l16.759-8.857,16.687,8.8v17.923l-16.731,8.755-16.715-8.868m40.391,3.638V438.5c-7.844-4.139-15.677-8.276-23.609-12.462-7.953,4.189-15.788,8.315-23.6,12.432v25.071c7.988,4.18,15.752,8.245,23.615,12.365,7.963-4.187,15.805-8.315,23.6-12.413m-193.416-3.638V442.11c5.454-2.884,10.968-5.8,16.759-8.857l16.684,8.8v17.923c-5.608,2.936-11.139,5.828-16.728,8.755l-16.715-8.868m40.388,3.638V438.5L326.6,426.042c-7.953,4.189-15.788,8.315-23.6,12.432v25.071c7.988,4.18,15.752,8.245,23.618,12.365L350.211,463.5m37.868-32.353c7.863,4.538,15.251,8.8,23.211,13.4l-23.211,13.405Zm-.161,39.426c14.936-8.641,29.667-17.166,45.023-26.053-18.552-10.7-36.4-21-54.781-31.6v87.309c3.655-4.319,6.629-7.828,9.758-11.527ZM229.6,470.246c5.362-9.308,10.5-18.226,16.089-27.929,5.545,9.576,10.705,18.491,16.17,27.929ZM287,492.162l-41.3-71.468c-15.425,26.739-30.427,52.742-45.692,79.2a78.992,78.992,0,0,0,12.313.177c4.117-7.075,8.129-13.97,12.127-20.846h42.568c4.126,7.108,8.188,14.108,12.238,21.086h91.936a20.9,20.9,0,0,0,.035-8.154Zm250.97-21.7c5.412-9.433,10.578-18.433,16.156-28.151,5.517,9.543,10.708,18.525,16.272,28.151Zm16.173-49.727c-13.959,24.15-27.514,47.6-41.229,71.322H393.626c-2.606,2.709-5.58,4.848-8.09,8.212H520.629c4.134-7.119,8.14-14.025,12.194-21.009h42.61c4.111,7.086,8.118,14,12.185,21.007A56.915,56.915,0,0,0,600,500.139c-15.34-26.559-30.444-52.714-45.861-79.4"/></svg>