<svg xmlns="http://www.w3.org/2000/svg" data-name="Layer 1" viewBox="0 0 800 600" fill="white"><path d="M259.615 230.106h-32.082a.833.833 0 01-.822-1l.842-4.131a.835.835 0 01.821-.665h32.3a.833.833 0 01.813 1.036l-1.063 4.129a.836.836 0 01-.811.626M256.323 244.106h-32.082a.832.832 0 01-.821-1l.841-4.132a.836.836 0 01.822-.665h32.3a.834.834 0 01.814 1.036l-1.064 4.129a.836.836 0 01-.811.627M252.969 258.235h-32.082a.833.833 0 01-.822-1l.841-4.132a.838.838 0 01.822-.665h32.3a.834.834 0 01.813 1.037l-1.063 4.128a.836.836 0 01-.811.627M232.489 344.971h-32.081a.832.832 0 01-.822-1l.841-4.131a.839.839 0 01.822-.665h32.3a.834.834 0 01.814 1.036l-1.064 4.129a.835.835 0 01-.811.626M229.2 358.971h-32.084a.833.833 0 01-.822-1l.842-4.132a.836.836 0 01.821-.665h32.3a.834.834 0 01.814 1.036l-1.064 4.129a.837.837 0 01-.811.627M225.843 373.1h-32.081a.832.832 0 01-.822-1l.841-4.129a.839.839 0 01.822-.668h32.3a.834.834 0 01.814 1.036l-1.064 4.132a.837.837 0 01-.811.624M349.008 334.9h-16.314a.554.554 0 00-.541.412l-.96 3.587a.555.555 0 00.539.7h3a.834.834 0 01.814 1.031l-7.859 31.685a.557.557 0 00.544.688h7.177a.557.557 0 00.542-.424l7.842-32.252a.837.837 0 01.814-.635h3.716a.551.551 0 00.547-.453l.69-3.681a.555.555 0 00-.55-.654M355 362.063c-.184.712-.368 1.424-.547 2.138q-.512 2.009-1.011 4.022a.757.757 0 01-.105.267c-.313.439-1.4.23-1.858.277-.528-.055-.517-.594-.426-1q.665-2.924 1.325-5.852a3.145 3.145 0 01.349-1 5.438 5.438 0 012.031-1.545c.457-.154.806-.061.8.552a9.906 9.906 0 01-.561 2.131m10.861-16.771a4.281 4.281 0 00-1.658-2.191c-1.558-1.063-3.592-1.039-5.483-1.008a15.421 15.421 0 00-4.624.519 9.214 9.214 0 00-4.11 2.914 9.044 9.044 0 00-1.4 3.5q-.635 2.252-1.276 4.5a.554.554 0 00.536.7h6.023a.557.557 0 00.547-.44l1.289-6.026a1.462 1.462 0 112.856.627l-1.215 4.915c-.024.11-.723.346-.819.393-.635.308-1.286.594-1.9.946-1.487.852-3.056 1.545-4.554 2.375a12.014 12.014 0 00-4.31 3.614 17.129 17.129 0 00-1.958 5.1 14.226 14.226 0 00-.687 3.379 4.221 4.221 0 001.116 3.172 5.292 5.292 0 003.994 1.091 15.461 15.461 0 003.409-.566c.522-.149.849-.347 1.355-.171a3.6 3.6 0 001.388.4c1.649-.014 3.3-.019 4.948-.028a.554.554 0 00.539-.42q1.009-4.1 2.02-8.2 1.666-6.75 3.329-13.5c.443-1.8 1.251-3.733.646-5.6M439.306 362.063c-.184.712-.368 1.424-.547 2.138q-.512 2.009-1.011 4.022a.757.757 0 01-.105.267c-.313.439-1.4.23-1.858.277-.528-.055-.517-.594-.426-1q.663-2.924 1.325-5.852a3.12 3.12 0 01.349-1 5.438 5.438 0 012.031-1.545c.457-.154.806-.061.8.552a9.906 9.906 0 01-.561 2.131m10.861-16.771a4.281 4.281 0 00-1.658-2.191c-1.558-1.063-3.592-1.039-5.484-1.008a15.418 15.418 0 00-4.623.519 9.214 9.214 0 00-4.11 2.914 9.044 9.044 0 00-1.4 3.5q-.636 2.252-1.276 4.5a.553.553 0 00.536.7h6.023a.557.557 0 00.547-.44l1.289-6.026a1.462 1.462 0 112.856.627l-1.215 4.915c-.025.11-.723.346-.819.393-.635.308-1.286.594-1.9.946-1.487.852-3.056 1.545-4.554 2.375a12.025 12.025 0 00-4.311 3.614 17.154 17.154 0 00-1.957 5.1 14.226 14.226 0 00-.687 3.379 4.221 4.221 0 001.116 3.172 5.292 5.292 0 003.994 1.091 15.461 15.461 0 003.409-.566c.522-.149.849-.347 1.355-.171a3.6 3.6 0 001.388.4c1.649-.014 3.3-.019 4.948-.028a.554.554 0 00.539-.42l2.02-8.2q1.665-6.75 3.329-13.5c.442-1.8 1.251-3.733.646-5.6M376.932 355.521h6.4a.556.556 0 00.544-.431c.613-2.711 1.377-5.429 1.844-8.167a4.346 4.346 0 00-1.49-3.7c-1.794-1.462-4.637-1.108-6.8-1.155-3.1-.068-6.132.608-8.034 3.233a13.861 13.861 0 00-1.666 3.958c-1.144 3.464-1.9 7.037-2.738 10.583l-.074.314q-.467 1.966-.913 3.933a17.922 17.922 0 00-.869 4.77 4.019 4.019 0 001.3 2.99 5.609 5.609 0 002.05.962 16.957 16.957 0 008.75-.027c1.973-.564 4.612-2.073 5.162-4.236l2.037-8.046a.554.554 0 00-.541-.687h-6.386a.556.556 0 00-.542.423l-1.916 7.576c-.134.553-.373.926-.945.888h-.278a1.167 1.167 0 01-1.058-1.435l5.107-19.635a1.115 1.115 0 012.175.492l-1.674 6.727a.555.555 0 00.547.67M422.045 355.521h6.4a.556.556 0 00.544-.431c.613-2.711 1.377-5.429 1.844-8.167a4.346 4.346 0 00-1.49-3.7c-1.794-1.462-4.637-1.108-6.8-1.155-3.1-.068-6.132.608-8.034 3.233a13.861 13.861 0 00-1.666 3.958c-1.144 3.464-1.9 7.037-2.738 10.583l-.074.314q-.467 1.966-.913 3.933a17.922 17.922 0 00-.869 4.77 4.019 4.019 0 001.3 2.99 5.609 5.609 0 002.05.962 16.957 16.957 0 008.75-.027c1.973-.564 4.612-2.073 5.162-4.236l2.037-8.046a.554.554 0 00-.541-.687h-6.386a.555.555 0 00-.542.423l-1.918 7.576c-.132.553-.371.926-.943.888h-.278a1.165 1.165 0 01-1.058-1.435L421 347.632a1.115 1.115 0 012.175.492l-1.674 6.727a.555.555 0 00.547.67M394.042 336h6.465a.555.555 0 01.539.7l-1.3 4.849a.554.554 0 00.541.695h2.613a.557.557 0 01.545.682l-.759 3.175a.559.559 0 01-.544.426h-3.346a.56.56 0 00-.547.432l-4.659 19.255a1.112 1.112 0 00.935 1.342l2.147.258a.552.552 0 01.464.676l-.943 3.945a.559.559 0 01-.544.426h-7.812c-1.586 0-2.5-1.715-2.186-3.257l5.124-22.4a.555.555 0 00-.525-.663l-1.982-.082a.555.555 0 01-.511-.712l.932-3.112a.562.562 0 01.536-.4h2.446a.553.553 0 00.542-.426l1.286-5.387a.56.56 0 01.545-.427M539.365 336h6.466a.554.554 0 01.538.7l-1.3 4.849a.555.555 0 00.542.695h2.614a.555.555 0 01.544.682l-.758 3.175a.56.56 0 01-.545.426h-3.345a.56.56 0 00-.547.432l-4.659 19.255a1.111 1.111 0 00.934 1.342l2.147.258a.553.553 0 01.465.676l-.943 3.945a.56.56 0 01-.544.426h-7.813c-1.586 0-2.5-1.715-2.185-3.257l5.124-22.4a.555.555 0 00-.525-.663l-1.982-.082a.554.554 0 01-.511-.712l.931-3.112a.563.563 0 01.536-.4h2.447a.554.554 0 00.542-.426l1.286-5.387a.559.559 0 01.544-.427M405.789 342.239h6.24a.555.555 0 01.542.687l-7.381 29.506a.559.559 0 01-.542.424h-6.061a.556.556 0 01-.544-.685l7.2-29.508a.562.562 0 01.544-.424M407.623 334.937h6.152a.553.553 0 01.546.665l-.9 4.3a.559.559 0 01-.547.442h-6.366a.556.556 0 01-.541-.693l1.11-4.3a.557.557 0 01.542-.415M456.21 334.937h5.9a.555.555 0 01.545.684l-9.014 36.98a.558.558 0 01-.541.424h-6.383a.556.556 0 01-.542-.69l9.489-36.98a.557.557 0 01.542-.418M220.2 269.264h-65.67c-13 1.424-25.24 10.333-31 21.873-3.252 6.515-4.624 14.181-2.551 21.155a21.2 21.2 0 0018.654 14.934h56.068a.561.561 0 00.412-.178l8.17-8.8a.552.552 0 01.409-.178h31.821a.561.561 0 01.536.4l2.41 8.133a.56.56 0 00.536.4l64.183.225a.836.836 0 00.808-.607l3.752-13.338a.833.833 0 00-.808-1.055h-33.653a.555.555 0 01-.538-.7l11.429-41.315a.834.834 0 00-.808-1.053h-13.892a.841.841 0 00-.811.621l-13.157 49.74a.281.281 0 01-.536.02l-6.174-18.107a1.114 1.114 0 00-1.058-.753h-47.62a1.125 1.125 0 00-.836.371l-18.843 21.067a.278.278 0 01-.478-.253l7.795-29.99a.277.277 0 00-.267-.346l-33.142-.267a2.249 2.249 0 00-1.727.789l-10.349 12.194a.554.554 0 00.429.91h26.721l-2.4 7.2-24.127-.119c-2.24-.011-5.344-2.191-6.762-3.8a8.64 8.64 0 01-2.122-5.8c.008-5.629 4.263-11.292 8.433-14.766 5.009-4.181 10.537-3.783 16.606-3.783h49.078a.564.564 0 00.437-.208l11.075-13.723a.554.554 0 00-.437-.9"/><path d="M207.049 294h40.084a.276.276 0 00.266-.36q-1.476-4.639-2.955-9.275-1-3.129-2-6.262c-.759-2.385-1.251-4.859-3.131-6.679a8.093 8.093 0 00-4.907-2.249 11.661 11.661 0 00-7.078 2.177 29.009 29.009 0 00-6 5.7q-2.184 2.482-4.367 4.973-4.281 4.869-8.56 9.741l-1.564 1.779a.277.277 0 00.211.459M422.2 282.929l3.626-12.612a.834.834 0 00-.809-1.058h-50.9a1.116 1.116 0 00-1.08.819l-11.38 41.942a.28.28 0 01-.27.206h-34.179a.555.555 0 01-.539-.7l11.43-41.318a.834.834 0 00-.809-1.05H323.4a.841.841 0 00-.811.621l-15.1 56.585a.554.554 0 00.538.7l49.086.165 52.349-.05a1.123 1.123 0 001.075-.813l3.64-13.082a.836.836 0 00-.809-1.053h-36.222a.553.553 0 01-.542-.69l1.523-5.946a.837.837 0 01.814-.624h36.988a.839.839 0 00.811-.618l3.466-12.986a.834.834 0 00-.811-1.044h-36.15a.555.555 0 01-.538-.7l1.547-5.476a.561.561 0 01.539-.4h36.334a1.118 1.118 0 001.075-.805M413.514 327.224h13.4a.838.838 0 00.808-.615l8.458-31.122 21.782 29.462a8.128 8.128 0 0013.651-2.689l14.266-52.3a.554.554 0 00-.539-.7H471.3a.561.561 0 00-.542.409l-8.2 30.5a.562.562 0 01-.989.184l-20.935-28.315a8.131 8.131 0 00-13.695 2.413l-14.231 51.728a.833.833 0 00.809 1.049"/><path d="M589.692 311.019a20.228 20.228 0 01-6.589 1.251c-2.969.126-5.946.016-8.912-.016-4.648-.056-11.572 1.231-14.855-3.057a12.589 12.589 0 01-1.866-10.625 20.048 20.048 0 014.046-8.089 18.946 18.946 0 019.445-5.883c2.975-.855 6.067-.577 9.135-.577h5.613c3.392 0 7.284-.278 10.525 1.083a9.743 9.743 0 011.5.786 9.844 9.844 0 013.911 6.685c1.394 8.024-4.739 15.594-11.957 18.442m89.75-41.76H665.4a.554.554 0 00-.539.412l-8.205 30.493a.56.56 0 01-.987.184l-20.938-28.313a8.127 8.127 0 00-13.692 2.411q-.252.9-.5 1.809-.544 1.966-1.085 3.936l-1.056 3.846c-.1.371-.173.75-.286 1.121a1.947 1.947 0 01-.539.99.307.307 0 01-.307.019c-.424-.256-.363-1.193-.416-1.586a11.222 11.222 0 00-.338-1.572 14.292 14.292 0 00-1.151-2.815 20.891 20.891 0 00-3.706-4.835 30.314 30.314 0 00-2.578-2.279 15.075 15.075 0 00-2.485-1.606c-5.369-2.779-11.809-2.212-17.425-2.212h-9.288a36.957 36.957 0 00-29.894 14.038 44.118 44.118 0 00-2.752 3.592 29.844 29.844 0 00-2.185 3.758 27.505 27.505 0 00-1.608 4.167c-.17.575-.322 1.158-.459 1.743-.069.291-.132.586-.192.88-.031.143-.064.288-.088.431a.607.607 0 01-.105.336.475.475 0 01-.462.082c-.308-.1-.365-.484-.478-.748s-.245-.541-.385-.805a13.253 13.253 0 00-1-1.6 14.88 14.88 0 00-2.837-2.939 13.93 13.93 0 00-3.736-2.127 11.844 11.844 0 00-3.581-.748l-29.869-.467c-2.2-.905-.608-4.717 1.776-4.83h37.4a1.125 1.125 0 00.838-.374l11.955-13.469a.553.553 0 00-.418-.921l-47.164-.006c-25.441 3.464-31.4 33.127-8.75 34.534l28.357.192c4.343-.244 6.814 7.079-3.488 8.434h-34.242a.561.561 0 00-.421.189l-12.048 13.6a.554.554 0 00.418.921l43.374.033c13.557-2.059 20.7-9.242 23.389-16.793a.279.279 0 01.539.044 19.914 19.914 0 004.866 10.267c6.336 6.936 15.775 6.13 23.469 6.24 4.912.071 9.844.294 14.753.036 3.722-.2 7.153-1.971 10.63-3.664a41.963 41.963 0 0015.391-13.827.279.279 0 01.5.231l-4.572 16.482a.833.833 0 00.809 1.05h13.4a.837.837 0 00.808-.613l8.156-30.012a.56.56 0 01.989-.182l21.1 28.533a8.127 8.127 0 0013.651-2.691l14.266-52.3a.554.554 0 00-.538-.7M483.068 347.644h6.4a.559.559 0 00.545-.434c.514-2.306.973-4.637 1.547-6.93.707-2.831-1.479-4.973-4.106-5.544a16.567 16.567 0 00-7.832.462 8.684 8.684 0 00-3.293 1.525 11.266 11.266 0 00-3.194 4.687 20.2 20.2 0 00-.94 3.466 13.057 13.057 0 00-.443 3.414 8.37 8.37 0 001.633 3.532c1.108 1.663 2.416 3.186 3.538 4.838a17.082 17.082 0 011.465 2.551 5.065 5.065 0 01.434 1.295 3.867 3.867 0 01-.135 1.4c-.206 1.042-.423 2.081-.643 3.12a16.154 16.154 0 01-.467 1.831 1.517 1.517 0 01-1.207 1.089 2.222 2.222 0 01-1.228.027 1.156 1.156 0 01-.817-.852 1.845 1.845 0 01.063-.679q.887-3.933 1.757-7.873a.554.554 0 00-.544-.673h-5.949a.557.557 0 00-.539.412q-.524 1.79-1.008 3.587c-.275 1.015-.589 2.035-.8 3.065-.4 1.985-1.234 4.187.107 6.029a6.733 6.733 0 003.692 2.119 13.371 13.371 0 005.352.253 17.366 17.366 0 003.508-.844 18.475 18.475 0 001.775-.737 5.332 5.332 0 001.532-1.163 12.6 12.6 0 001.335-1.465 15.162 15.162 0 002.024-4.92 31.82 31.82 0 00.75-3.532 7.22 7.22 0 00-.036-3.618 15.7 15.7 0 00-2.267-3.681c-1.174-1.638-2.483-3.2-3.566-4.9a6.661 6.661 0 01-1.105-2.829 11.916 11.916 0 01.638-3.95 2.943 2.943 0 01.613-1.487 1.692 1.692 0 011.339-.577 1.149 1.149 0 011.14 1.168 8.078 8.078 0 01-.244 1.025q-.425 1.773-.847 3.543c-.129.547-.261 1.094-.39 1.641-.022.319.085.616.407.616M522.983 354.021h5.91a.833.833 0 00.816-.648q.742-3.258 1.482-6.515a3.431 3.431 0 00.1-.624 2.369 2.369 0 00-.132-.855 4.505 4.505 0 00-2.432-2.521c-3.085-1.448-6.949-1.083-10.083.02l-.052.016a7.339 7.339 0 00-2.911 1.8 10.833 10.833 0 00-2.01 4.1 21.03 21.03 0 00-1.069 4.329 6.292 6.292 0 00.129 2.571c.316 1.008 1.6 1.775 2.408 2.355 1.347.968 2.749 1.853 4.022 2.917a1.9 1.9 0 01.577 1.908 16.1 16.1 0 01-.226 1.66 14.031 14.031 0 01-.959 3.312c-.7 1.523-2.479 1.144-2.4-.022l1.369-6.418a.553.553 0 00-.544-.668h-6.108a.558.558 0 00-.544.426q-.764 3.188-1.532 6.372a9.475 9.475 0 00-.2.984 3.716 3.716 0 00.525 2.694 6 6 0 002.529 1.577 12.5 12.5 0 003.513.646 16.206 16.206 0 003.807-.253 9.883 9.883 0 005.289-2.5 10.534 10.534 0 002.424-4.657c.734-2.323 1.795-5.778.094-7.96a7.5 7.5 0 00-2.092-1.68c-.929-.563-1.858-1.113-2.79-1.668a2.942 2.942 0 01-1.364-1.477 5 5 0 01-.154-2.265 9.08 9.08 0 01.858-3.452 1.592 1.592 0 01.8-.811 1.364 1.364 0 01.715-.022 1.092 1.092 0 01.742.434 1.283 1.283 0 01.124.742 17.574 17.574 0 01-.861 4.808c-.093.291-.395 1.344.226 1.344M608.226 354.021h5.91a.834.834 0 00.817-.648q.743-3.258 1.481-6.515a3.433 3.433 0 00.105-.624 2.369 2.369 0 00-.132-.855 4.507 4.507 0 00-2.433-2.521c-3.084-1.448-6.949-1.083-10.083.02l-.052.016a7.339 7.339 0 00-2.911 1.8 10.845 10.845 0 00-2.009 4.1 21.03 21.03 0 00-1.069 4.329 6.258 6.258 0 00.129 2.571c.316 1.008 1.6 1.775 2.408 2.355 1.344.968 2.748 1.853 4.021 2.917a1.892 1.892 0 01.575 1.908 15.31 15.31 0 01-.223 1.66 14.031 14.031 0 01-.959 3.312c-.7 1.523-2.48 1.144-2.4-.022l1.369-6.418a.554.554 0 00-.547-.668h-6.103a.56.56 0 00-.544.426q-.762 3.188-1.531 6.372a9.48 9.48 0 00-.2.984 3.717 3.717 0 00.526 2.694 5.98 5.98 0 002.528 1.577 12.5 12.5 0 003.511.646 16.228 16.228 0 003.81-.253 9.884 9.884 0 005.288-2.5 10.526 10.526 0 002.425-4.657c.734-2.323 1.795-5.778.093-7.96a7.475 7.475 0 00-2.092-1.68c-.929-.563-1.858-1.113-2.79-1.668a2.935 2.935 0 01-1.363-1.477 4.984 4.984 0 01-.154-2.265 9.043 9.043 0 01.858-3.452 1.577 1.577 0 01.8-.811 1.36 1.36 0 01.714-.022 1.092 1.092 0 01.743.434 1.325 1.325 0 01.123.742 17.535 17.535 0 01-.86 4.808c-.093.291-.4 1.344.225 1.344M494.189 342.2h5.676a.834.834 0 01.838.874l-.728 13.873a.28.28 0 00.539.113l5.712-14.321c.129-.317.715-.523 1.055-.523h5.792c.6 0 .344.44.105.99q-.561 1.282-1.125 2.567-1.4 3.192-2.792 6.383-1.8 4.111-3.6 8.219c-1.9 4.4-3.977 8.722-5.772 13.164-.954 2.364-1.955 4.506-4.492 5.5-2.094.816-4.412.451-6.605.346l-.921-.044c-.41-.022-.918-.192-.789-.7l.638-2.471a.838.838 0 01.756-.624l2.622-.173a2.222 2.222 0 001.784-2.117l.467-30.234a.838.838 0 01.839-.819M557.885 354.986a.6.6 0 01-.192.314.834.834 0 01-.528.121h-1.185a.846.846 0 01-.734-.247.821.821 0 01-.016-.646q.878-3.43 1.754-6.867a1.724 1.724 0 01.236-.594 1.176 1.176 0 01.646-.406c.759-.2 2 .192 1.924 1.135a9.268 9.268 0 01-.4 1.531q-.243.915-.487 1.836-.481 1.834-.97 3.673c-.014.049-.027.1-.044.148m8.854-10.5a4.171 4.171 0 00-1.481-1.391 9.6 9.6 0 00-4.016-1.091c-.322-.025-.647-.038-.968-.047a17.549 17.549 0 00-3.455.281 9.416 9.416 0 00-6.317 3.7 9.638 9.638 0 00-1.185 3.15c-.25 1.116-.522 2.224-.794 3.337q-.8 3.3-1.606 6.6-1.059 4.362-2.122 8.724a3.755 3.755 0 00-.016 2.318 4.272 4.272 0 00.9 1.5 6.319 6.319 0 003.128 1.6 14.386 14.386 0 003.53.341 19.5 19.5 0 003.867-.473c.124-.028.25-.038.377-.063a7.23 7.23 0 003.856-2.1 8.822 8.822 0 002.076-4.1c.437-1.665.791-3.356 1.085-5.049a.555.555 0 00-.552-.679l-6.056.077a.559.559 0 00-.536.42c-.231.916-.536 1.82-.8 2.727-.2.693-.426 1.38-.627 2.073a4.778 4.778 0 01-.775 1.979 1.5 1.5 0 01-.9.492 1.121 1.121 0 01-.954-.324c-.456-.5-.126-1.3.014-1.872.156-.655.316-1.312.475-1.969q.533-2.209 1.067-4.422a.556.556 0 01.541-.424h9.237a.562.562 0 00.544-.423q.552-2.23 1.105-4.464.453-1.839.907-3.672.205-.822.407-1.642a13.165 13.165 0 00.643-2.927 4 4 0 00-.594-2.183M563.579 373.036h6.353a.553.553 0 00.541-.424l6.229-25.2c.245-1 2.944-1 2.5.663l-5.869 24.148a.556.556 0 00.542.685h6.209a.56.56 0 00.542-.418l6.226-24.657a1.39 1.39 0 012.727.519l-6.111 23.9a.555.555 0 00.55.657h6.394a.556.556 0 00.541-.424q.705-2.886 1.4-5.772 1.139-4.692 2.265-9.385 1.072-4.466 2.125-8.933c.1-.427.2-.85.3-1.279a6.017 6.017 0 00.338-2.309 2.854 2.854 0 00-1.113-1.731 4.962 4.962 0 00-1.924-.842 7.839 7.839 0 00-5.652.877 6.046 6.046 0 01-.951.517 1.358 1.358 0 01-1.058 0 2.454 2.454 0 01-.564-.451 5.369 5.369 0 00-3.7-1.185 10.139 10.139 0 00-2.056.242c-.313.069-.627.149-.935.242s-.618.344-.934.294a1.293 1.293 0 01-.338-.126 2.514 2.514 0 00-1-.4h-5.571a1.111 1.111 0 00-1.081.836l-7.457 29.264a.556.556 0 00.541.69M305.059 334.289a.561.561 0 00-.5.317C282.123 381.968 195 412.717 144.181 353.49c-.228-.267-.432-.049-.217.231 55.334 72.25 150.644 35.487 177.206-18.637a.555.555 0 00-.506-.8zM311.823 262.788c-9.982-26-43.061-65.76-108.349-51.4a.136.136 0 01-.074-.261c28.269-9.266 94.585-12.6 122.557 51.244a.554.554 0 01-.514.775h-13.1a.554.554 0 01-.519-.355"/></svg>