<svg id="Layer_1" fill="white" data-name="Layer 1" xmlns="http://www.w3.org/2000/svg" viewBox="0 0 800 600"><path d="M367.625,294.21h7.113a2.605,2.605,0,0,1,2.646,2.56v23.671a2.6,2.6,0,0,1-2.646,2.56h-7.113a2.6,2.6,0,0,1-2.647-2.56V296.77a2.606,2.606,0,0,1,2.647-2.56"/><path d="M427.413,323h7.111a2.6,2.6,0,0,0,2.648-2.56V296.77a2.605,2.605,0,0,0-2.648-2.56h-7.111a2.605,2.605,0,0,0-2.646,2.56v23.671a2.6,2.6,0,0,0,2.646,2.56"/><path d="M247.883,323h7.111a2.6,2.6,0,0,0,2.646-2.56V279.816a2.6,2.6,0,0,0-2.646-2.56h-7.111a2.6,2.6,0,0,0-2.646,2.56v40.625a2.6,2.6,0,0,0,2.646,2.56"/><path d="M307.424,323h7.11a2.6,2.6,0,0,0,2.646-2.56V279.816a2.6,2.6,0,0,0-2.646-2.56h-7.11a2.6,2.6,0,0,0-2.647,2.56v40.625a2.6,2.6,0,0,0,2.647,2.56"/><path d="M622.241,323h7.111a2.6,2.6,0,0,0,2.646-2.56V279.816a2.6,2.6,0,0,0-2.646-2.56h-7.111a2.6,2.6,0,0,0-2.646,2.56v40.625a2.6,2.6,0,0,0,2.646,2.56"/><path d="M345.132,311.484H325.78a2.6,2.6,0,0,0-2.644,2.56v6.4A2.6,2.6,0,0,0,325.78,323h31.756a2.6,2.6,0,0,0,2.646-2.56V279.816a2.6,2.6,0,0,0-2.646-2.56h-7.111a2.6,2.6,0,0,0-2.646,2.56v29.109a2.6,2.6,0,0,1-2.647,2.559"/><path d="M662.6,280v20.027a2.659,2.659,0,0,1-4.518,1.809l-12.627-12.211a2.71,2.71,0,0,0-3.785.041l-3.481,3.525a2.5,2.5,0,0,0,.056,3.592l26.975,25.655a2.7,2.7,0,0,0,1.85.734l5.282.008A2.6,2.6,0,0,0,675,320.619V280a2.6,2.6,0,0,0-2.646-2.56h-7.111A2.6,2.6,0,0,0,662.6,280"/><path d="M439.932,276.776H427.248a2.6,2.6,0,0,0-2.647,2.56v7.357a2.606,2.606,0,0,0,2.647,2.56h8.077A2.694,2.694,0,0,1,437.2,290l20.178,19.516a1.147,1.147,0,0,1-.841,1.967H445.855a2.6,2.6,0,0,0-2.647,2.559v6.4a2.6,2.6,0,0,0,2.647,2.56h31.779a2.6,2.6,0,0,0,2.646-2.571l-.024-4.7a2.519,2.519,0,0,0-.774-1.8L441.8,277.525a2.686,2.686,0,0,0-1.87-.749"/><path d="M264.745,304.025l18.62,18.216a2.691,2.691,0,0,0,1.883.759h11.736a2.6,2.6,0,0,0,2.647-2.557v-6.4a2.606,2.606,0,0,0-2.647-2.56H290.5a2.681,2.681,0,0,1-1.869-.749l-9.089-8.787a2.5,2.5,0,0,1,0-3.62l9.089-8.788a2.685,2.685,0,0,1,1.869-.748h6.487a2.606,2.606,0,0,0,2.647-2.56v-6.4a2.6,2.6,0,0,0-2.647-2.558H285.228a2.687,2.687,0,0,0-1.859.738L264.8,295.74a5.722,5.722,0,0,0-.052,8.285"/><path d="M562.453,323h7.111a2.6,2.6,0,0,0,2.646-2.56V279.816a2.6,2.6,0,0,0-2.646-2.56h-7.111a2.6,2.6,0,0,0-2.646,2.56v40.625a2.6,2.6,0,0,0,2.646,2.56"/><path d="M600.162,311.484H580.81a2.605,2.605,0,0,0-2.646,2.56v6.4A2.6,2.6,0,0,0,580.81,323h31.755a2.6,2.6,0,0,0,2.647-2.56V279.816a2.6,2.6,0,0,0-2.647-2.56h-7.11a2.6,2.6,0,0,0-2.647,2.56v29.109a2.6,2.6,0,0,1-2.646,2.559"/><path d="M167.67,294.21H140.05a2.6,2.6,0,0,1-2.647-2.56V279.974a2.6,2.6,0,0,0-2.646-2.558h-7.113A2.6,2.6,0,0,0,125,279.974v23.673a2.6,2.6,0,0,0,2.644,2.56h37.379a2.6,2.6,0,0,1,2.647,2.557v.161a2.6,2.6,0,0,1-2.647,2.559H127.644a2.6,2.6,0,0,0-2.644,2.56v6.4a2.6,2.6,0,0,0,2.644,2.56h49.783a2.6,2.6,0,0,0,2.646-2.56V296.77a2.6,2.6,0,0,0-2.646-2.56H167.67Z"/><path d="M146.169,289.252h31.259a2.6,2.6,0,0,0,2.645-2.56v-7.357a2.6,2.6,0,0,0-2.645-2.56H146.169a2.6,2.6,0,0,0-2.646,2.56v7.357a2.6,2.6,0,0,0,2.646,2.56"/><path d="M542.524,294.21H514.9a2.6,2.6,0,0,1-2.646-2.56V279.974a2.6,2.6,0,0,0-2.647-2.558H502.5a2.6,2.6,0,0,0-2.647,2.558v23.673a2.6,2.6,0,0,0,2.647,2.56h37.377a2.6,2.6,0,0,1,2.646,2.557v.161a2.6,2.6,0,0,1-2.646,2.559H502.5a2.6,2.6,0,0,0-2.647,2.56v6.4A2.6,2.6,0,0,0,502.5,323h49.782a2.6,2.6,0,0,0,2.644-2.56V296.77a2.6,2.6,0,0,0-2.644-2.56h-9.759Z"/><path d="M521.024,289.252h31.259a2.6,2.6,0,0,0,2.644-2.56v-7.357a2.6,2.6,0,0,0-2.644-2.56H521.024a2.606,2.606,0,0,0-2.647,2.56v7.357a2.606,2.606,0,0,0,2.647,2.56"/><path d="M367.46,289.252h37.707a2.56,2.56,0,1,1,0,5.118H391.732l-.043-.039-.041.039h-6a2.6,2.6,0,0,0-2.644,2.536l-.039,4.059a4.391,4.391,0,0,0,1.353,3.2l18.2,17.6a4.692,4.692,0,0,0,3.207,1.309l11.516.149a2.6,2.6,0,0,0,2.646-2.558v-6.4a2.6,2.6,0,0,0-2.646-2.56h-6.485a2.7,2.7,0,0,1-1.872-.749l-.972-.941a2.318,2.318,0,0,1,1.7-3.973h7.959a2.6,2.6,0,0,0,2.646-2.558V279.335a2.6,2.6,0,0,0-2.646-2.56H367.46a2.606,2.606,0,0,0-2.647,2.56v7.357a2.606,2.606,0,0,0,2.647,2.56"/><path d="M188.012,323h7.113a2.6,2.6,0,0,0,2.644-2.56V296.77a2.6,2.6,0,0,0-2.644-2.56h-7.113a2.605,2.605,0,0,0-2.646,2.56v23.671a2.6,2.6,0,0,0,2.646,2.56"/><path d="M200.531,276.776H187.847a2.6,2.6,0,0,0-2.647,2.56v7.357a2.606,2.606,0,0,0,2.647,2.56h8.077A2.689,2.689,0,0,1,197.8,290l20.18,19.516a1.148,1.148,0,0,1-.843,1.967H206.454a2.6,2.6,0,0,0-2.647,2.559v6.4a2.6,2.6,0,0,0,2.647,2.56h31.779a2.6,2.6,0,0,0,2.646-2.571l-.024-4.7a2.518,2.518,0,0,0-.774-1.8L202.4,277.525a2.694,2.694,0,0,0-1.872-.749"/></svg>