<?xml version="1.0" encoding="UTF-8"?>
<svg version="1.1" fill="white" viewBox="0 0 4096 1578" width="467" height="180" xmlns="http://www.w3.org/2000/svg">
<path transform="translate(1408,76)" d="m0 0h458l1 2-7 17-14 43-121 363-1 2h193l4-2 9-24 19-57 14-41 15-45 14-41 12-36 16-47 13-38 12-36 19-56 3-4h972l23 2 23 5 19 8 11 7 10 8v2h2l8 10 8 14 6 18 2 12v29l-4 28-7 25-26 78-14 41-17 50-27 80-14 41-20 59-15 43-18 54-14 41-17 50-14 41-15 43-12 31-12 27-8 16-10 18-12 17-11 14-17 17-13 10-18 11-21 10-21 7-22 5-26 3-22 1h-944l-23-1-1-4 7-16 24-72 14-41 27-80 16-47 22-65 14-41 12-36 8-23-152 1h-47l-2 9-23 69-15 43-12 36-29 86-15 43-27 80-15 43-4 12-3 3-30 1h-414l-15-1-1-4 6-15 12-36 52-154 22-65 21-62 29-86 14-41 22-65 29-86 16-47 27-80 19-56 27-80 22-65 10-29zm1083 119-3 1-8 22-12 36-15 44-15 43-21 61-19 55-22 64-18 52-15 43-15 44-15 43-23 67-15 43-20 58-14 41-6 18 12 1h125l18-2 17-5 16-8 11-7 11-10 5-5 10-13 10-17 11-26 47-141 14-41 123-369 6-26 2-14v-14l-3-12-6-11-7-7-10-5-10-2-17-1z"/>
<path transform="translate(3161,1306)" d="m0 0h28l18 1 2 3 10 59 9 50 4 16h1l5-43 13-74 2-10 2-2 44 1 1 1v189l-1 1-25 1-5-1-1-2-1-26-1-94-4 28-10 60-6 31-2 3-3 1h-20l-5-2-3-6-8-36-9-52-6-26v120l-1 1h-27l-1-1-1-22v-168z"/>
<path transform="translate(2625,1306)" d="m0 0h32l9 1 2 2 19 65 9 30 3 8v-84l1-21h29l1 1v189l-1 1h-32l-4-6-9-29-12-41-13-42-4-10v119l-1 9-9 1-20-1-1-3-1-73v-50l1-65zm28 60 1 2zm47 48 1 2z"/>
<path transform="translate(1641,1306)" d="m0 0h34l7 1 3 4 9 33 13 43 8 24 1 2-1-16v-90l1-1 27 1 3 3-1 188h-32l-3-3-9-28-10-34-14-45-7-19 1 32v31l-1 66-11 1h-15l-3-1-1-2v-189z"/>
<path transform="translate(2102,1306)" d="m0 0h43l23 1 10 2 10 6 9 10 5 11 2 16v85l-1 22-2 12-6 12-7 7-9 4-9 2-25 2-37 1-7-2v-190zm34 28-1 26v112l21-1 12-2 1-14v-116l-2-3-13-2z"/>
<path transform="translate(609,1306)" d="m0 0h48l19 1 12 3 8 6 7 8 4 10 1 4v40l-2 10-4 6-4 5-6 5h-2l4 5 8 7 5 9 1 3 3 69-1 1h-31l-2-2-1-8-2-47-1-12-2-4-5-2-20-2-3-1 1 76-1 2h-33l-1-5zm35 28-1 22v36l1 1 17-1 9-3 3-3 1-5 1-14v-15l-1-14-2-2-17-2z"/>
<path transform="translate(76,1306)" d="m0 0h13l19 1 1 1v81h36v-56l1-26 1-1h16l17 1v191l-10 1-24-1-1-1v-55l1-25h-15l-22-1v82h-33l-1-1v-188z"/>
<path transform="translate(1416,1304)" d="m0 0h21l12 3 8 4 9 8 6 9 4 12 1 11v93l-1 17-3 13-6 10-8 8-10 5-9 2-9 1h-13l-16-3-9-5-5-4-7-11-4-13-1-7v-111l2-12 6-12 9-9 8-5 9-3zm7 28-8 2-4 4-1 5-1 37v76l2 11 5 5 4 1h12l7-3 2-5 1-8 1-71v-25l-1-21-4-6-7-2z"/>
<path transform="translate(346,1306)" d="m0 0h16l16 1 2 3v151l2 10 9 1h9l9-3 1-1 1-9 1-139 1-14h13l18 1 1 1v65l-1 83-2 15-4 9-6 8-8 6-10 4-15 2h-11l-14-2-10-4-10-10-6-12-2-9-1-9-1-66v-21l1-60z"/>
<path transform="translate(2922,1306)" d="m0 0h38l9 1 2 1 3 15 9 57 8 45 12 72-1 1h-31l-3-5-4-27v-3l-40 1-3 20-1 12-3 2h-27l-3-1 5-27 10-59 9-53 5-30 4-20zm20 41-1 2-5 37-8 50 1 1h30l-3-21-10-59-3-10z"/>
<path transform="translate(3702,1304)" d="m0 0h24l13 4 10 7 7 9 5 12 2 12 1 19-2 4-3 1h-22l-6-1-1-26-3-9-6-3h-13l-6 3-2 5-1 9-1 48v56l2 13 2 3 8 2h9l8-2 3-15v-28l4-1 27 1 2 1 1 8-1 20-3 16-5 10-9 10-10 5-16 3h-15l-16-3-10-6-7-8-5-11-3-14v-113l3-14 6-10 5-6 11-7z"/>
<path transform="translate(917,1303)" d="m0 0 17 2 11 4 8 6 7 9 5 11 3 15v6l-5 2-21 1-9-2 1-14-5-8-8-3-8 1-6 5-3 6v14l6 12 11 12 16 15 8 7 11 13 8 15 3 9 1 6v11l-4 16-7 11-7 7-10 5-12 3h-24l-12-4-9-6-6-7-5-10-3-11-1-8v-9l3-5 27-1 2 2 1 19 4 9 7 3h9l8-4 3-8v-8l-3-12-4-8-10-11-11-9-13-12-9-11-8-13-4-12-1-6v-12l2-11 7-14 6-7 11-7 10-3z"/>
<path transform="translate(3968,1303)" d="m0 0 14 1 13 4 9 6 8 9 5 11 3 14v8l-5 2-11 1h-10l-8-2-1-5 1-10-3-5v-2l-10-3-8 1-5 4-4 8v12l3 8 9 12 9 9 11 9 13 13 10 13 6 13 3 11v16l-4 14-7 10-5 6-14 7-10 2h-23l-13-4-8-6-8-9-5-12-2-8-1-14 3-7 27-1 3 5v13l3 9 5 5 4 1h8l8-4 3-6v-13l-4-13-7-9-8-8-11-9-16-16-10-15-5-13-1-4v-22l5-14 6-8 7-7 10-5 8-2z"/>
<path transform="translate(2353,1306)" d="m0 0h31l4 3 10 34 10 36 3 10h2l2-9 9-33 12-39 2-2h29l1 5-15 47-14 41-9 30-2 15-1 53-1 1h-32l-1-1v-44l-2-18-7-27-23-72-6-20-3-9z"/>
<path transform="translate(1120,1306)" d="m0 0h100l2 1-1 26-7 1h-26v40l-1 111v12l-1 1h-32l-1-1v-163h-25l-9-1-1-1v-21z"/>
<path transform="translate(3467,1306)" d="m0 0h16l16 1 2 2v44l-1 145h-33l-1-1v-190z"/>
</svg>
