<?xml version="1.0" encoding="UTF-8"?>
<svg version="1.1" fill="white" viewBox="0 0 3920 1600" width="980" height="400" xmlns="http://www.w3.org/2000/svg">
<path transform="translate(2697,214)" d="m0 0 2 2-10 14-7 11-40 60-27 41-76 114-4 1h-1152l-7-9-29-44-118-177-7-10v-2h1367zm-1300 41-2 1v165h57l1-11v-154l-1-1zm111 0-5 5-11 13-8 10-11 13-9 11-4 5-1 3v79l5-4 10-13 14-18v-2h2l18-22v-2h2l9-11 9-10 16-20 11-13 13-16 2-4h2l2-4zm86 0v166h57v-166zm63 0v42h54l-1 27-53 1v42h34l3 11 14 36 3 6 1 1h60l-1-4-11-24-11-25-5-11 2-4 12-12v-2h2l7-8v-49l-9-10-7-8-8-9zm132 0v139l14 14 7 8 5 5h57v-47h-26v-119zm113 0v118l-24 1v47h55l7-6 7-8 9-10 3-3v-139zm107 0-5 5-14 15-6 7-1 4v107l10 10 7 8 9 10h60v-43h-28v-79h26l2-1v-43zm67 0-1 39v4l28 1 1 12 1 1h26l31-1v-27l-7-8-11-12-7-8-2-1zm110 0v166h58l-1-166zm64 0v43h80v-43zm101 0v166h57l1-1v-114l-1-51zm64 0v42h53v28h-53v42h31l2 1 16 42 5 11h60l-1-5-14-31-12-27 1-5 9-8 9-11 4-5v-46l-9-11-15-16-1-1zm-165 61v43h70v-43zm-191 5-2 2v40h44l3 1v12l-1 1-27 1v43h60l8-8 9-11 8-8 1-2v-71zm-539 7-12 14-7 9-6 7v2h-2l-11 14 2 6 12 20 13 21h67l-4-8-27-45-13-22-10-18zm730 50v43h80v-43z"/>
<path transform="translate(2880,120)" d="m0 0 4 2-13 18-12 19-40 60-19 29-28 42-19 29-29 44-22 33-13 20-42 63-23 35-18 27-27 41-18 27-13 20-26 39-7 11-48 72-19 29-22 33-21 32-10 15-27 41-18 27-13 20-42 63-23 35-34 51-11 17-40 60-9 14-8 12-7 11-48 72-19 29-30 45-11 17-32 48-15 23-18 27-13 20-9 14-1 5-3-1-9-15-29-43-29-44-29-43-22-33-29-43-29-44-11-16-76-114-29-43-29-44-29-43-40-60-29-43-82-123-29-43-29-44-29-43-70-105-29-43-60-90-29-43-29-44-29-43-32-48-29-43-17-26-9-13-6-8v-2zm-1785 28 3 6 29 43 29 44 7 10 46 69 29 43 29 44 9 13 42 63 29 43 29 44 11 16 54 81 29 43 29 44 29 43 22 33 29 43 29 44 29 43 29 44 11 16 40 60 29 43 29 44 11 16 40 60 29 43 29 44 25 37 50 75 4 7h3l8-13 38-57 25-38 10-15 15-23 29-44 32-48 27-41 48-72 11-17 28-42 11-17 18-27 27-41 26-39 11-17 48-72 9-14 8-12 23-35 12-18 27-41 34-51 11-17 48-72 11-17 10-15 29-44 18-27 27-41 18-27 25-38 50-75 9-14 28-42 14-22 7-10 17-26 12-18v-2z"/>
<path transform="translate(1515,653)" d="m0 0 363 1 3 8 12 45 1 6-1 1-10 1-1 298-7 10-9 14-13 20-10 15-13 20-6 9-3-1v-386l-15-1v375l-5-4-10-16-29-43-14-21-4-7v-283h-16l1 258-3-1-7-10-10-16-29-43-13-20v-169l-16 1 1 138-2 4-6-7-9-15-11-16-32-48-1-56h-36l-4-4-19-29-12-18-5-7z"/>
<path transform="translate(2404,653)" d="m0 0h5l-1 5-7 9-10 16-20 30-2 1h-37v57l-4 5-29 44-7 10-11 17-6 9h-2l-1-9v-133l-15-1v168l-4 8-7 10-36 54-10 16-4 3-1-258h-14l-1 3v280l-4 7-50 75-5 8h-3v-373h-15v386l-2 1-4-4-10-16-17-26-15-23-14-21v-103l1-195-11 1-1-5 7-24 8-30 1-1z"/>
<path transform="translate(1943,583)" d="m0 0h64v672l-36 54-9 14-4-2-8-13-17-25-20-30v-529l1-13 12-60 3-16 2-10-21 11-10 6-3 1 1-5 7-15 7-16 1-1 23-1 6-21zm1 22 2 5 7 5 14-6 4-4z"/>
<path transform="translate(1868,479)" d="m0 0h19l9 1 7 6 2 4v9h-6l-3-8v-2h-37l-2 6v35l2 5 9 1h24l4-2 1-4v-11h-17l-7-2v-5l4-2h26l2 1 1 12-1 11-5 8-4 2-14 1h-12l-13-1-6-5-3-7v-42l3-5 8-5z"/>
<path transform="translate(1779,479)" d="m0 0h12l10 1 8 7 3 5 1 4v8l-3 5-5 5 1 7 8 20 1 3-5 1-5-3-8-20-1-4h-34l1 6v20l-5 1-3-1-1-47 1-16 1-1zm-17 9 1 22h35l6-5 1-3v-7l-4-6-2-1z"/>
<path transform="translate(1486,480)" d="m0 0h7l7 6 10 13 14 19 11 15 1-52 1-1h6l1 1v63l-7 1-5-3-12-15-13-18-10-13-5-5 1 5-1 48-5 1-3-2v-60z"/>
<path transform="translate(1708,479)" d="m0 0h9l3 1v7l-1 1h-43l1 19 38 1 1 1v6l-1 1h-39v20h42l2 2v6h-51l-1-1v-62l1-1z"/>
<path transform="translate(2449,479)" d="m0 0h19l11 1 6 5 3 5v9l-5 1-3-3-3-8h-35l-2 4v40l1 2 11 1h18l7-1 4-9 1-2 5 1 1 1v9l-8 9-11 1h-20l-10-1-5-4-2-4-1-7v-38l2-5 6-5z"/>
<path transform="translate(2232,479)" d="m0 0h15l13 1 4 2 5 8v9l-4 1-3-2-3-8-1-1h-35l-2 7v34l2 5 10 1h22l4-1 4-10 3-1 3 2v8l-5 8-4 2-15 1h-11l-13-1-7-6-2-5v-43l3-5 8-5z"/>
<path transform="translate(1967,479)" d="m0 0 7 1 4 5 11 25 10 24 4 10-5 1-4-2-7-15v-2l-15 1h-14l-7 1-7 16-7 1 1-7 12-29 9-22 4-6zm1 9-5 10-8 19v2h28l-1-6-10-23-1-2z"/>
<path transform="translate(2140,479)" d="m0 0 7 1 5 7 12 28 11 26 1 3-1 1-7-1-8-16v-2l-6 1-30-1-1 5-6 13-6 1-2-1 3-9 11-26 10-24 5-5zm1 9-5 10-8 19v2h28l-1-6-10-23-2-2z"/>
<path transform="translate(2348,479)" d="m0 0 4 1 1 5-3 3h-23v56h-7l-1-1v-55h-24l-2-1 1-7z"/>
<path transform="translate(1577,480)" d="m0 0h58l1 1v5l-1 1-8 1h-17v56h-8v-56h-23l-3-3z"/>
<path transform="translate(2037,479)" d="m0 0 6 2v55l40 1 1 1v5l-1 1-29 1h-16l-3-1v-64z"/>
<path transform="translate(1439,480)" d="m0 0h6l2 1v63h-8l-1-15v-46z"/>
<path transform="translate(2385,480)" d="m0 0h8l1 5-1 59h-8l-1-61z"/>
</svg>
