<svg version="1.1" viewBox="74 -96 852 852" xmlns="http://www.w3.org/2000/svg">
  <style>
    path { fill: #14181f; }
    @media (prefers-color-scheme: dark) {
      path { fill: #ffffff; }
    }
  </style>
  <path d="M 154.727 33.518 L 394.727 33.518 L 473.727 114.518 L 473.727 217.518 L 376.727 217.518 L 376.727 128.518 L 172.727 129.518 L 173.727 282.518 L 394.727 283.518 L 473.727 364.518 L 473.727 548.518 L 395.727 627.518 L 153.727 627.518 L 74.727 548.518 L 74.727 444.518 L 171.727 444.518 L 173.727 532.518 L 375.727 532.518 L 376.727 378.518 L 154.727 378.518 L 74.727 298.518 L 74.727 114.518 L 154.727 33.518 Z" />
  <path d="M 527.727 33.518 L 624.727 33.518 L 625.727 34.518 L 625.727 283.518 L 828.727 282.518 L 829.727 33.518 L 845.727 33.518 L 926.727 115.518 L 926.727 548.518 L 849.727 626.518 L 847.727 627.518 L 829.727 627.518 L 829.727 378.518 L 625.727 378.518 L 625.727 627.518 L 527.727 627.518 L 527.727 33.518 Z" />
</svg>
