<svg version="1.1" viewBox="0 0 2048 1597" width="2338" height="1824" xmlns="http://www.w3.org/2000/svg">
<path transform="translate(702,526)" d="M 0 0 L 240 0 L 319 81 L 319 184 L 222 184 L 222 95 L 18 96 L 19 249 L 240 250 L 319 331 L 319 515 L 241 594 L -1 594 L -80 515 L -80 411 L 17 411 L 19 499 L 221 499 L 222 345 L 0 345 L -80 265 L -80 81 L 0 0 Z" fill="#FEFEFD"></path>
  <path transform="translate(1075,526)" d="M 0 0 L 97 0 L 98 1 L 98 250 L 301 249 L 302 0 L 318 0 L 399 82 L 399 515 L 322 593 L 320 594 L 302 594 L 302 345 L 98 345 L 98 594 L 0 594 L 0 0 Z" fill="#FDFDFC"></path>
  <path transform="translate(1399,1218)" d="M 0 0 L 66 0 L 94.669 27.118 L 94 90 L 76 107 L 0 107 L 0 0 Z" fill="#FEFEFD"></path>
  <path transform="translate(910,1218)" d="m0 0h78l6 4 7 7 2 6v42l-5 8-5 5-3 2 9 9 3 4v19l-1 1h-21l-2-12-9-10-7-8-16-1h-13v30l-1 1h-22z" fill="#FEFEFD"></path>
  <path transform="translate(1319,1218)" d="m0 0h63l1 10v94l-1 3h-22v-31h-49v30l-1 1h-21l-1-1v-73l3-5 25-25z" fill="#FEFEFD"></path>
  <path transform="translate(831,1218)" d="m0 0h63l1 17v89l-1 1h-21l-1-1v-30l-48 1v28l-3 2h-16l-4-1v-74l4-6 8-8 8-7 7-8z" fill="#FEFEFD"></path>
  <path transform="translate(616,1218)" d="M 0 0 L 66 0 L 79.504 11.017 L 80 16 L 80 33 L 58 33 L 57 31 L 56.902 21.962 L 52 22 L 10 22 L 11 40 L 66 41 L 74 47 L 79 53 L 80 55 L 80 93 L 74 101 L 67 107 L 2 107 L -3 105 L -6 103 L -8 101 L -14 92 L -14 75 L -13 74 L 8 74 L 9 75 L 10 85 L 57 84 L 57 64 L 1 64 L -8 58 L -13 52 L -14 19 L -12 11 L -8 6 L 0 0 Z" fill="#FEFEFD"></path>
  <path transform="translate(1187,1218)" d="M 0 0 L 87 0 L 88 4 L 87 21 L 23 21 L 23 41 L 80 41 L 81 42 L 81 64 L 24 64 L 23 85 L 87 85 L 88 86 L 88 106 L 87 107 L 0 107 L -1 106 L -1 1 L 0 0 Z" fill="#FEFEFD"></path>
  <path transform="translate(1078,1218)" d="m0 0h22l1 1v40h47v-40l1-1h21l1 1v105l-1 1h-21l-1-1-1-42h-45l-1 42-1 1h-22l-1-33v-71z" fill="#FEFEFD"></path>
  <path transform="translate(705,1218)" d="M 0 0 L 92.002 0.034 L 92.021 22 L 57 22 L 57 106 L 56 107 L 34 107 L 33 106 L 33 22 L -0.012 21.931 L 0 0 Z" fill="#FEFEFD"></path>
  <path transform="translate(1422,1239)" d="m0 0h27l7 1 14 15v44l-4 4h-44l-1-63z" fill="#010405"></path>
  <path transform="translate(933,1239)" d="m0 0h45l2 1v29l-2 3h-45z" fill="#050B10"></path>
  <path transform="translate(863,1239)" d="m0 0h9v33h-48l-1-2 1-10 7-8 10-11 2-1z" fill="#020609"></path>
  <path transform="translate(1330,1240)" d="m0 0h30v31l-4 1h-45v-12l6-7 5-5z" fill="#050C10"></path>
  <path transform="translate(1017,1264)" d="m0 0h47v21h-47z" fill="#FEFEFD"></path>
  <path transform="translate(863,1239)" d="m0 0h9l-1 24h-1l-1-19 1-3-2 1h-24l-4 7-2-1h-2l2-4 5-4z" fill="#03080B"></path>
  <path transform="translate(933,1239)" d="m0 0 4 2h-2v29h-1z" fill="#020507"></path>
  <path transform="translate(1311,1260)" d="m0 0h2l1 11-3 1z" fill="#0B161E"></path>
</svg>
